<svg width="19" height="14" fill="none" xmlns="http://www.w3.org/2000/svg"><path d="M18.805 6.225L8.29.251C7.48-.21 6.37.038 5.835.798L3.798 3.691c-.2.284-.306.618-.306.964 0 .6.324 1.157.846 1.456l2.217 1.272-.4.531a1.674 1.674 0 00-.337 1.003c0 .37.136.717.356 1.004l-.59.882H2.717v-1.16a.383.383 0 00-.388-.38H.78a.383.383 0 00-.388.38V13.5c0 .213.173.385.387.385H2.33a.386.386 0 00.388-.385v-.385h2.867c.78 0 1.503-.385 1.935-1.03l.636-.947c.122.026.245.05.371.05a1.78 1.78 0 001.516-.853l.426-.706 3.3 1.893a.387.387 0 00.54-.162l.287-.571c.047.003.092.014.14.014a2.71 2.71 0 002.714-2.699c0-.163-.024-.332-.06-.504l1.397-.694a.386.386 0 00.018-.68zM1.94 13.115h-.775v-3.082h.775v3.081zm4.933-1.456a1.55 1.55 0 01-1.29.686H2.717v-.77h2.867c.26 0 .501-.129.645-.343l.537-.8.665.396-.557.83zM9.377 9.94c-.271.448-.91.607-1.36.337l-.984-.586a.902.902 0 01-.44-.77.9.9 0 01.182-.54l.456-.605 2.565 1.47-.42.694zm4.421.71l-9.073-5.2a.91.91 0 01-.292-1.31l.973-1.38 9.595 5.498-1.203 2.393zm1.19-.642l.812-1.615.86-.428c.005.048.014.096.014.142 0 .976-.737 1.776-1.686 1.9zm.536-2.34l-9.671-5.54.617-.875a1.094 1.094 0 011.436-.32l9.885 5.612-2.267 1.126z" fill="#9FC460"/></svg>