<svg width="18" height="18" fill="none" xmlns="http://www.w3.org/2000/svg"><path d="M7.778 17.01c-3.82-.348-6.7-2.091-6.7-4.054 0-.459.156-.912.463-1.348a.376.376 0 00-.071-.508.332.332 0 00-.481.075c-.397.564-.598 1.163-.598 1.781 0 1.197.775 2.338 2.182 3.214 1.327.827 3.155 1.382 5.146 1.563l.03.002a.352.352 0 00.342-.332.358.358 0 00-.313-.393zm1.503.064h-.02a.354.354 0 00-.343.365c.001.2.155.361.344.361h.019c.19 0 .344-.162.344-.363 0-.2-.154-.363-.344-.363zm8.26-5.686a.354.354 0 00.333-.362c0-.2-.154-.363-.344-.363h-.693a.354.354 0 00-.344.363v.731c0 .2.154.363.344.363a.334.334 0 00.249-.113c.15.311.226.63.226.95 0 1.963-2.88 3.706-6.701 4.054a.358.358 0 00-.313.393.352.352 0 00.372.33c1.992-.182 3.82-.737 5.147-1.563C17.225 15.295 18 14.153 18 12.957c0-.54-.154-1.067-.459-1.569zM9.195 3.63a.354.354 0 00-.344.363v.792c0 .2.154.363.344.363.19 0 .343-.162.343-.363v-.792c0-.2-.154-.363-.343-.363z" fill="#9FC460"/><path d="M15.114 4.222L9.367.72a.328.328 0 00-.343 0l-5.747 3.5a.367.367 0 00-.172.315v7.002c0 .13.066.25.172.315l5.747 3.5a.33.33 0 00.343 0l5.747-3.5a.367.367 0 00.172-.315V4.536c0-.13-.066-.25-.172-.314zM8.852 14.41l-4.715-2.873.325-.198c.165-.1.22-.322.126-.496a.334.334 0 00-.47-.132l-.325.198V5.165l4.712 2.874-.59.36a.374.374 0 00-.127.496.34.34 0 00.298.181.329.329 0 00.172-.049l.594-.361v5.745zm.343-8.072a.354.354 0 00-.343.363v.71L4.137 4.536l4.715-2.873v.413c0 .2.154.363.343.363.19 0 .344-.162.344-.363v-.413l4.715 2.873L9.54 7.412v-.71c0-.2-.154-.363-.344-.363zm5.403 4.57l-.325-.197a.334.334 0 00-.47.132.374.374 0 00.126.496l.325.198-4.715 2.873V8.666l.594.361a.329.329 0 00.172.049.34.34 0 00.298-.181.374.374 0 00-.126-.496l-.59-.36 4.711-2.874v5.745z" fill="#9FC460"/><path d="M12.7 9.753l-.65-.396a.334.334 0 00-.47.133.374.374 0 00.126.496l.65.396a.328.328 0 00.172.049.34.34 0 00.298-.182.374.374 0 00-.126-.496zM6.81 9.49a.334.334 0 00-.47-.133l-.65.396a.374.374 0 00-.126.496.34.34 0 00.298.182.329.329 0 00.172-.049l.65-.396a.374.374 0 00.126-.496z" fill="#9FC460"/></svg>