<svg width="170" height="108" fill="none" xmlns="http://www.w3.org/2000/svg"><g clip-path="url(#clip0)"><path d="M47.989 67.805a1.348 1.348 0 01.059-1.05 1.67 1.67 0 01.824-.776l-5.33-.137c.614.26 1.114 1.111.863 1.861-.216.654-4.529 12.02-5.696 15.105-4.115-3.726-7.854-8.142-9.163-10.173l4.777-4.993c.924-.948 2.61-1.903 3.48-2.271l-5.044-.242c.614.26.896 1.149.43 1.643l-8.065 8.618v-9.372c.024-.287.129-.566.306-.811.177-.245.42-.45.71-.597l-4.983-.466c.563.31 1.099.976 1.099 1.275v19.057c0 .298-.533.967-1.1 1.275l4.983-.45a1.964 1.964 0 01-.71-.596 1.615 1.615 0 01-.305-.811V77.26l2.247-2.348c5.076 6.602 9.845 10.344 15.84 12.155l.508-.296a37.882 37.882 0 01-3.746-2.849l1.942-5.363 7.455-.218 1.81 4.422c.2.608-.412 1.307-.978 1.608l4.897-.207a3.524 3.524 0 01-1.016-1.408s-5.886-14.34-6.094-14.95zm-5.615 9.468l3.076-8.5 3.4 8.308-6.476.192zm36.49 30.043l-5.003.08c.333-.177.587-.445.72-.762.134-.316.14-.662.016-.981l-5.15-12.135-4.845 12.183c-.12.348-.103.72.051 1.058.153.339.434.623.796.81l-3.743.172c.548-.419.705-.748 1.015-1.408 0 0 5.642-13.84 5.899-14.546.097-.33.076-.678-.06-.999a1.758 1.758 0 00-.702-.798l4.57-.162c-.63.26-1.07 1.194-.762 1.999l5.975 14.076c.29.51.624 1.153 1.223 1.413zm48.481-39.602v15.474c.024.287.129.566.306.81.177.246.42.45.709.597l-4.982-.217c.566-.31 1.099-.977 1.099-1.278v-9.563l-7.463.14v9.038c.024.287.129.566.306.811.177.245.42.45.71.597l-4.983-.133c.566-.31 1.099-.977 1.099-1.275V67.803c0-.298-.533-.967-1.099-1.277l4.983-.13c-.29.146-.533.35-.71.596a1.615 1.615 0 00-.306.811v4.599l7.463-.14v-4.435c0-.298-.533-.967-1.099-1.275l4.982-.246c-.289.146-.532.35-.709.596a1.61 1.61 0 00-.306.81v.002zm21.276-1.833v18.773c.024.288.129.566.305.812.177.245.421.45.71.596l-4.985-.412c.563-.31 1.099-.976 1.099-1.277v-18.22c0-.298-.533-.967-1.099-1.277l4.982-.4a1.963 1.963 0 00-.707.595 1.608 1.608 0 00-.305.81zm21.382 22.385l-4.983-.637c.564-.31 1.099-.976 1.099-1.277V68.215a27.93 27.93 0 01-.786 1.26c-3.046 4.596-7.224 11.115-7.821 12.224a21.879 21.879 0 00-1.777 4.869l-.253-.04v.075l-1.739-.183V65.478c0-.299-.533-.968-1.099-1.277l4.982-.488a1.968 1.968 0 00-.709.596 1.614 1.614 0 00-.306.811v15.457c1.269-2.125 4.968-7.861 7.513-11.688 1.125-1.692 1.879-3.228 1.985-4.021v-.706c0-.3-.533-.968-1.099-1.278l4.983-.654a1.971 1.971 0 00-.71.597 1.613 1.613 0 00-.305.811V86.86c.025.288.132.567.31.811.179.245.424.45.715.595zm-84.887-4.704c2.115-.486 3.977-1.573 5.282-3.083 2.625-3.036 3.135-6.238.632-9.699-2.406-3.308-7.975-4.89-12.437-3.332-3.554 1.244-5.351 3.568-6.08 6.035-.69 2.962.163 5.68 2.234 7.645 2.498 2.378 6.76 3.322 10.369 2.434zM74.963 72.23c.442-2.019 1.792-3.538 4.632-3.987 2.414-.38 4.427.162 6.227 1.439 3.5 2.487 4.584 5.267 4.29 8.107-.328 1.308-.762 2.16-1.544 2.916-2.142 2.045-5.703 2.367-8.727.72-2.284-1.25-3.487-2.819-4.36-4.725a6.808 6.808 0 01-.516-4.46l-.002-.01zm-8.49 11.19a17.261 17.261 0 01-5.72 1.221 9.908 9.908 0 01-2.408-.192c-.876-.152-1.63-.462-2.15-1.059a.175.175 0 01-.04-.138.19.19 0 01.08-.125c.734-.587 1.17-.872 1.922-1.495.25.432.602.816 1.032 1.127.43.312.931.543 1.47.681.653.142 2.557.45 4.12-.653 2.163-1.526 2.17-5.013-.121-6.471-1.153-.732-2.833-1.26-4.328-.935-.559.146-1.056.36-1.343.84 0-.936 0-1.825-.02-2.734.147.202.34.377.566.515.227.138.483.236.754.29a11.34 11.34 0 002.368-.219 3.283 3.283 0 001.717-.787c.459-.414.75-.944.831-1.512.161-.773.08-1.57-.233-2.308-.647-1.375-2.03-2.347-3.808-2.303a4.635 4.635 0 00-2.408.751c-.668.624-1.069.737-1.422 1.64 0 .012-.043.017-.089.036-.101-1.133-.073-1.706-.238-2.833.346.054.698.079 1.05.074.49-.055.975-.14 1.45-.257a9.183 9.183 0 015.584.218 6.44 6.44 0 012.087 1.233c1.875 1.668 1.814 3.858-.201 5.307a10.12 10.12 0 01-2.003 1.044c.6.236 1.056.395 1.493.587 2.581 1.142 3.833 3.138 3.213 5.324-.413 1.477-1.617 2.471-3.206 3.134zm34.21-6.034c-1.713 0-5.54-.368-5.54-4.85v-4.358c0-.299-.534-.968-1.1-1.277l4.983-.133c-.29.147-.533.351-.71.597a1.615 1.615 0 00-.306.81v4.12c0 .734.37 3.744 3.93 3.744 1.462 0 2.446-.25 3.104-.549v-7.45c0-.298-.533-.967-1.099-1.276l4.982-.133a1.968 1.968 0 00-.709.596 1.614 1.614 0 00-.306.812v14.43c.024.287.129.566.306.81.177.246.42.45.709.597l-4.982-.109c.563-.31 1.099-.976 1.099-1.275v-5.867c-1.198.513-2.604.761-4.358.761h-.003zm34.929-4.328v-6.225c.024-.287.129-.566.306-.81.177-.246.42-.45.709-.597l-4.982.309c.566.31 1.099.976 1.099 1.275v16.498c0 .299-.533.968-1.099 1.277l4.982.292c-.033-.013-.061-.032-.091-.048 1.239.105 2.929.242 3.754.284 1.391.07 4.275-1.293 4.041-4.85-.261-4.03-6.335-6.61-8.716-7.405h-.003zm5.615 8.785c-.226 1.09-1.5 2.275-3.506 2.138-.563-.04-1.482-.118-2.096-.172a.795.795 0 01-.015-.138V74.17c1.124.536 2.967 1.526 4.035 2.483 2.199 1.952 1.797 4.158 1.584 5.193l-.002-.002zM94.015 104.11l2.381 2.114c-2.65 2.482-7.546 1.608-8.617 1.355a19.05 19.05 0 00-3.513-.486 31.638 31.638 0 00-3.402.138 3.462 3.462 0 00.653-1.931V90.944c0-.299-.533-.968-1.1-1.275l11.19.013c.47.021.935-.1 1.312-.344l1.794 2.872-.4.218s-1.42-1.525-4.39-1.525h-5.472v4.642h4.33c.574.01 1.14-.11 1.643-.349a3.106 3.106 0 001.22-1.007v3.79c-.482-.46-1.523-1.288-2.863-1.288h-4.335v9.228c.626-.003 1.25.039 1.868.126.589.07 3.587.344 5.219.046 1.632-.299 2.111-1.245 2.487-1.981h-.005zm17.567-3.269s1.226 1.259.914 2.469c-.167.654-.741 1.149-1.239 1.473-.402.862-1.072 1.613-1.936 2.172a6.52 6.52 0 01-2.967.995c-2.14.218-4.442-.231-6.557-2.413-2.114-2.181-3.787-5.98-2.36-10.443 1.46-4.577 6.223-5.481 8.142-5.527a9.25 9.25 0 013.719.712c.614.275 1.312.528 1.98.436l.241.323-3.127 2.458c-.213-.712-.909-2.615-3.506-2.615-2.596 0-4.013 1.172-4.617 3.666-.9 3.735-.048 7.383 1.726 9.524 1.523 1.839 2.945 2.412 4.63 2.482 1.396.057 2.61-.436 3.518-1.724-.34-.466-.799-1.281-.594-2.077.31-1.214 2.041-1.913 2.041-1.913l-.008.002zm47.575-38.576s-.482-2.37.932-4.032c1.413-1.66 4.193-1.98 4.193-1.98s.482 2.37-.932 4.031c-1.414 1.661-4.188 1.986-4.188 1.986l-.005-.005zm-126.85 24.05s-.736 2.273-2.81 3.256c-1.363.654-2.962.575-3.9.451-1.755.778-5.468 1.744-9.242 1.744-4.643 0-8.763-1.09-12.27-5.096-3.313-3.785-5.666-11.444-2.793-19.078 3.191-8.452 10.181-10.025 13.595-10.025 4.973 0 5.221 1.917 8.958 2.105l.19.366-4.208 3.426c-.236-1.338-1.44-4.577-5.122-4.577-3.683 0-7.08 2.718-8.76 7.288C4.07 71.28 4.59 78.28 7.537 83.377c2.269 3.923 5.49 5.688 8.442 6.423 1.838.455 5.447.503 9.016-.414.34-.726 1.137-2.066 2.607-2.761 2.066-.988 4.705-.31 4.705-.31z" fill="#D2B887"/><path d="M93.52 3.064a3.45 3.45 0 011.807.589 2.992 2.992 0 01-1.806.588 2.995 2.995 0 01-1.806-.588 3.458 3.458 0 011.805-.589zm4.416 2.561s.224-.789-.21-1.366c-.434-.578-1.363-.728-1.363-.728s-.224.789.21 1.366c.434.578 1.363.728 1.363.728zm-5.018-.732a1.72 1.72 0 00-.779.952 1.88 1.88 0 001.352-.113c.202-.102.377-.24.511-.404a1.3 1.3 0 00.27-.55 2.28 2.28 0 00-1.354.113v.002zm-7.917-.42c.879.3 1.869-.049 1.869-.049s-.44-.839-1.318-1.14c-.878-.3-1.868.048-1.868.048s.44.84 1.317 1.14zm-4.475.463a1.781 1.781 0 00-.357-1.272c-.215.13-.397.295-.535.485-.14.191-.233.404-.275.626a1.46 1.46 0 00.03.669c.06.218.172.425.328.606a2 2 0 00.81-1.111v-.003zm-2.03-.46s.556-.693.409-1.425c-.148-.732-.937-1.222-.937-1.222s-.556.693-.409 1.425c.148.732.937 1.223.937 1.223zm-.348 2.529c.245-.456.272-.976.076-1.449-.196-.473-.6-.86-1.124-1.082a1.674 1.674 0 00-.076 1.449c.196.473.6.86 1.124 1.082zm2.716 1.571a1.326 1.326 0 00-.094-.62 1.503 1.503 0 00-.375-.536 1.8 1.8 0 00-.594-.361 2.031 2.031 0 00-.714-.126c-.019.21.013.42.094.62.08.199.209.381.376.535a1.8 1.8 0 00.594.362c.225.084.468.127.713.126zm-4.622-2.925a1.326 1.326 0 00-.094-.62 1.503 1.503 0 00-.375-.535 1.802 1.802 0 00-.595-.362 2.031 2.031 0 00-.713-.126c-.019.21.013.421.094.62.08.199.209.381.376.536a1.8 1.8 0 00.594.36 2 2 0 00.713.127zm-.673 1.622c.762.207 1.576-.166 1.576-.166s-.42-.706-1.185-.91c-.764-.206-1.576.165-1.576.165s.421.706 1.185.91zm3.127 4.293c.18-.197.31-.423.385-.665.074-.241.09-.493.046-.74a1.682 1.682 0 00-.3-.697 1.993 1.993 0 00-.595-.537 1.74 1.74 0 00-.385.664c-.075.242-.09.494-.047.742.044.247.146.484.3.696.154.212.357.395.596.537zm1.158.872c-.062.413.034.832.271 1.194.392-.252.658-.622.746-1.035.087-.413-.01-.84-.273-1.194-.371.267-.632.63-.744 1.035zm.777 1.809a1.7 1.7 0 000 1.281 1.98 1.98 0 00.632-.36 1.67 1.67 0 00.423-.54 1.456 1.456 0 00-.002-1.28 2.16 2.16 0 00-1.061.905l.008-.006zm9.493 4.472c-.076.784.611 1.475.611 1.475s.81-.584.886-1.37c.076-.787-.611-1.476-.611-1.476s-.81.584-.889 1.37h.003zm6.343-3.893a1.96 1.96 0 00-.508-1.338 1.91 1.91 0 00-.523.56 1.585 1.585 0 00-.138 1.403c.086.23.225.443.407.626.41-.332.678-.772.762-1.25zm-.383-4.559a2.772 2.772 0 00-1.539-.481c.01.24.076.478.194.697.117.22.284.417.49.58.207.165.45.291.714.374.264.083.545.12.826.11a2.045 2.045 0 00-.686-1.28zm-2.128-.1a1.975 1.975 0 00-.54-1.327 1.89 1.89 0 00-.507.57 1.592 1.592 0 00-.096 1.405c.093.228.237.438.425.618a2.06 2.06 0 00.718-1.266zm6.635.314a2.971 2.971 0 00-1.718.588c-.476.363-.787.857-.88 1.397a2.972 2.972 0 001.718-.588c.475-.363.787-.857.88-1.397zm-2.424 3.2c-.253.47.036 1.05.036 1.05s.706-.184.962-.654c.256-.471-.036-1.05-.036-1.05s-.705.182-.962.653zm5.034-5.203a1.89 1.89 0 00-.079-1.332c-.46.236-.804.607-.968 1.045-.164.437-.137.911.077 1.333.443-.252.782-.617.97-1.044v-.002zm1.977-.488c.31-.291.479-.672.475-1.066 0 0-.82-.035-1.315.357a1.435 1.435 0 00-.472 1.066s.82.035 1.312-.357zm-.563 2.63c-.072.39.031.787.286 1.114 0 0 .706-.36.866-.922a1.394 1.394 0 00-.287-1.116s-.706.36-.865.922v.002zm2.652 4.268s.15.69.711 1.013c.401.19.872.244 1.317.15 0 0-.15-.693-.711-1.013a2.084 2.084 0 00-1.317-.15zm2.389 3.147c.718.078 1.36-.45 1.36-.45s-.525-.653-1.244-.73c-.718-.076-1.36.45-1.36.45s.525.653 1.244.73zm1.609.926a1.977 1.977 0 00-1.234-.273s.056.672.548 1.031c.357.22.798.318 1.234.273 0 0-.056-.672-.548-1.031zm-10.394-.713a3.299 3.299 0 00-1.734-.2 2.584 2.584 0 00-1.37.843c.539.22 1.145.29 1.733.2a2.583 2.583 0 001.371-.843zm-.828 5.508c.955.102 1.777-.463 1.777-.463s-.716-.732-1.67-.834c-.955-.103-1.777.462-1.777.462s.716.732 1.67.835zm1.17-3.57a2.378 2.378 0 001.269-.78 3.045 3.045 0 00-1.599-.186c-.513.13-.96.405-1.269.78a3.04 3.04 0 001.599.186zm1.67 1.244a2.446 2.446 0 001.414-.373 2.589 2.589 0 00-1.353-.62 2.443 2.443 0 00-1.413.372c.361.325.834.542 1.35.619l.002.002zm5.727.942c-.454.255-.786.642-.937 1.09 0 0 .922.191 1.632-.153.455-.255.789-.642.939-1.09 0 0-.921-.192-1.632.152h-.002zm-3.678 1.636c-.914.23-1.406 1.033-1.406 1.033s.99.436 1.903.203c.914-.233 1.407-1.033 1.407-1.033s-.99-.436-1.904-.203zm3.472 1.443c.539-.163.996-.48 1.295-.898a3.22 3.22 0 00-1.719-.142c-.538.163-.995.48-1.294.898a3.217 3.217 0 001.718.142zm1.498.503a2.127 2.127 0 00-1.323.293s.465.597 1.145.714c.467.048.938-.056 1.32-.292 0 0-.465-.597-1.145-.715h.003zm-.627 2.13a1.5 1.5 0 00.49 1.013 1.9 1.9 0 001.188.297 1.509 1.509 0 00-.49-1.014 1.907 1.907 0 00-1.188-.296zm-2.066.815c-.31.566.04 1.242.04 1.242s.853-.242 1.165-.808c.313-.567-.04-1.243-.04-1.243s-.853.242-1.165.809zm-7.541-2.587s-1.062.135-1.635.758c-.574.624-.444 1.498-.444 1.498s1.06-.136 1.634-.759c.574-.623.442-1.497.442-1.497h.002zm6.063 1.66a1.645 1.645 0 00-.883.691c.386.15.819.186 1.231.1.382-.131.695-.376.883-.69a2.187 2.187 0 00-1.231-.1zm-10.353.079c.421.009.834-.104 1.172-.32.294-.25.474-.58.508-.933a2.1 2.1 0 00-1.173.32c-.294.25-.474.582-.507.935v-.002zm9.074-5.616c-.3-.25-.682-.416-1.094-.475a2.072 2.072 0 00-1.142.263c.3.25.682.416 1.094.475a2.07 2.07 0 001.142-.263zm-3.01-8.182a2.471 2.471 0 001.228-.823c.233-.397.297-.851.183-1.284a2.476 2.476 0 00-1.229.824c-.231.397-.295.85-.18 1.283h-.002zm2.406 2.5a2.01 2.01 0 001.155-.682 2.503 2.503 0 00-1.409-.3c-.469.098-.879.34-1.155.681a2.5 2.5 0 001.409.301zm-2.962-1.693c-.5.32-.863.774-1.03 1.29a3.596 3.596 0 001.84-.38c.499-.32.86-.774 1.028-1.29a3.592 3.592 0 00-1.838.38zm3.571-5.704s-1.038.024-1.711.56c-.42.375-.675.863-.723 1.382 0 0 1.041-.024 1.711-.56.42-.375.676-.863.723-1.382zm-29.383 6.179c-.036.438.1.874.386 1.238.206-.132.379-.298.509-.488s.215-.4.25-.618c.034-.218.018-.44-.048-.653a1.582 1.582 0 00-.338-.586c-.391.285-.66.675-.761 1.107h.002zm-5.607-4.895a1.443 1.443 0 00.116-1.28 1.62 1.62 0 00-.376-.569 1.929 1.929 0 00-.603-.4c-.117.196-.188.41-.207.63-.02.22.01.44.09.65.081.209.21.402.377.569.168.166.373.302.603.4zm-3.046 5.039s0-.916-.64-1.526a3.086 3.086 0 00-1.7-.68s0 .918.64 1.526a3.09 3.09 0 001.7.68zm-1.223.507c.09.37.32.702.655.946.366.205.801.297 1.236.262a1.671 1.671 0 00-.655-.946 2.188 2.188 0 00-1.236-.262zm.683 5.976a2.13 2.13 0 00-1.168-.453 2.119 2.119 0 00-1.185.395c.32.258.73.417 1.167.453a2.116 2.116 0 001.186-.395zm6.175-5.38a2.13 2.13 0 00-1.287.156c.21.343.554.61.973.754a2.13 2.13 0 001.289-.157 1.828 1.828 0 00-.975-.754zm-2.183-1.125a2.054 2.054 0 00-1.195.455c-.266.31-.392.692-.355 1.075.45-.025.874-.187 1.198-.456a1.44 1.44 0 00.355-1.074h-.003zm.43 4.023a1.54 1.54 0 00-.605.987 2.16 2.16 0 001.27-.235 1.54 1.54 0 00.603-.987 2.164 2.164 0 00-1.269.235zm9.137 3.162s-.046-.732-.591-1.135c-.546-.403-1.386-.331-1.386-.331s.043.732.591 1.137c.549.406 1.386.33 1.386.33zm-14.668-3.624s-.605-.776-1.524-.93c-.918-.155-1.802.37-1.802.37s.605.776 1.523.93c.92.155 1.805-.37 1.805-.37h-.002zm11.782 12.205a1.956 1.956 0 00-.436-1.37 2.599 2.599 0 00-1.391-.699c-.036.477.11.95.418 1.347.36.36.85.606 1.391.7l.018.022zm-9.29-1.522c-.06.472.067.947.358 1.35.43-.304.731-.72.858-1.186a1.889 1.889 0 00-.358-1.35c-.43.305-.731.721-.858 1.186zm-1.807 1.264c-.104.389-.052.796.147 1.156.397-.213.7-.533.86-.91a1.54 1.54 0 00-.147-1.154 1.892 1.892 0 00-.86.908zm-1.295-1.399c-.443.118-.828.36-1.091.689a2.41 2.41 0 001.345.183 2.08 2.08 0 001.092-.689 2.407 2.407 0 00-1.346-.183zm-1.29 2.855a2.305 2.305 0 001.27-.423c.315-.293.505-.668.54-1.065a2.306 2.306 0 00-1.269.422 1.664 1.664 0 00-.54 1.066zm11.34-.682c.157-.342.175-.72.05-1.072a1.74 1.74 0 00-.865-.767c-.158.342-.176.72-.051 1.072.177.333.483.604.865.767zm-4.872.218c-.1.358-.055.735.127 1.068a1.58 1.58 0 00.505-.335c.14-.14.246-.303.31-.48.066-.175.088-.361.066-.545a1.23 1.23 0 00-.19-.523 1.724 1.724 0 00-.815.815h-.003zm-2.749-9.491a2.756 2.756 0 00-1.464.551c-.36.35-.577.792-.617 1.258a2.755 2.755 0 001.465-.552c.36-.35.577-.791.616-1.257zm-.119-4.516a2.924 2.924 0 00-1.65-.35c.12.491.427.935.873 1.261a2.92 2.92 0 001.65.35 2.231 2.231 0 00-.873-1.261zm1.813 3.27s-.554-.925-1.577-1.245c-1.023-.32-2.124.09-2.124.09s.556.925 1.576 1.244c1.02.318 2.124-.09 2.124-.09zm12.846-5.434c-.569.654-.447 1.547-.447 1.547s1.043-.144 1.612-.789c.568-.645.446-1.547.446-1.547s-1.043.144-1.611.789zm8.427 3.343a3.598 3.598 0 00-1.777-1.024c-.068.63.132 1.261.563 1.776.43.514 1.064.877 1.782 1.022a2.705 2.705 0 00-.563-1.776l-.005.002zm-11.831-4.51s-.84.552-.983 1.352c-.142.8.465 1.543.465 1.543s.838-.551.982-1.351c.145-.8-.464-1.543-.464-1.543zm9.236-9.76a2.03 2.03 0 00-.69 1.287c.283.018.566-.014.834-.093s.515-.204.725-.366c.21-.163.38-.36.5-.581.12-.22.186-.46.195-.703a2.778 2.778 0 00-1.564.464v-.009zm.544 2.841a1.87 1.87 0 00.325-1.38 2.29 2.29 0 00-.786.25 1.972 1.972 0 00-.606.494 1.674 1.674 0 00-.33.661c-.055.237-.055.482.003.719a2.555 2.555 0 001.394-.744zm2.13.297a1.948 1.948 0 00-.549-1.33 1.858 1.858 0 00-.526.56 1.544 1.544 0 00-.11 1.405c.094.229.241.438.433.616a2.03 2.03 0 00.761-1.253l-.01.002zm-4.958 4.587c-.24.38-.295.826-.152 1.24.143.415.471.764.913.97.24-.38.295-.826.153-1.24-.143-.414-.472-.763-.914-.97zm1.822-2.242a3.004 3.004 0 001.452-.948 3.48 3.48 0 00-1.82-.092 2.802 2.802 0 00-1.068.567c.179-.296.288-.62.32-.953a2.493 2.493 0 00-.437-1.497 2.58 2.58 0 00-.667 1.432c-.02.289.021.578.119.854a2.561 2.561 0 00-.749-.435 3.481 3.481 0 00-1.822-.081 2.86 2.86 0 001.32 1.09c.312.11.647.166.984.165-.286.156-.524.37-.69.623-.229.44-.275.934-.132 1.4.525-.16.972-.467 1.27-.872.077-.13.132-.267.164-.41.066.2.183.386.343.543.553.52 1.556.512 1.556.512s.106-.856-.447-1.377a2.228 2.228 0 00-1.246-.49v-.016a3.29 3.29 0 001.538.013l.012-.028zM73.833 29.204a2.86 2.86 0 00-1.472-.436c-.214.005-.425.04-.627.1a1.85 1.85 0 00.411-.586 2.033 2.033 0 00-.035-1.454 2.485 2.485 0 00-1.107 1.09 1.72 1.72 0 00-.112.824 1.514 1.514 0 00-.528-.482c-.627-.333-1.47-.146-1.47-.146s.176.73.803 1.066c.17.087.358.145.553.17-.215.063-.41.167-.571.305-.492.436-.442 1.164-.442 1.164s.85.013 1.343-.436c.112-.103.202-.221.267-.35.008.173.057.345.144.503.33.573 1.175.793 1.175.793s.308-.708-.025-1.282a1.461 1.461 0 00-.475-.47c.23.07.472.105.716.104a2.833 2.833 0 001.452-.477zm2.084-10.025s-.957-.026-1.546.466a1.526 1.526 0 00-.393.519 1.391 1.391 0 00-.254-.623c-.442-.606-1.406-.774-1.406-.774s-.254.815.198 1.423c.121.161.278.3.462.41a1.958 1.958 0 00-.762.065c-.761.235-1.122.992-1.122.992s.853.375 1.607.14c.174-.057.334-.139.475-.243a1.3 1.3 0 00-.142.571c0 .722.73 1.308.73 1.308s.721-.586.719-1.308a1.38 1.38 0 00-.206-.68c.192.17.417.31.665.412a3.359 3.359 0 001.754.127 2.732 2.732 0 00-1.236-1.077 2.571 2.571 0 00-.586-.153c.16-.064.308-.15.436-.255.592-.49.594-1.307.594-1.307l.013-.013zm22.578 1.987s-.95-.122-1.576.308a1.4 1.4 0 00-.36.36 1.282 1.282 0 00-.077-.583c-.27-.682-1.175-1.037-1.175-1.037s-.467.754-.196 1.436c.095.223.248.424.447.589a2.667 2.667 0 00-.782-.218c-.6-.035-1.197.09-1.71.36a3.1 3.1 0 001.57.681c.22.02.443.013.66-.021a1.182 1.182 0 00-.271.42c-.198.573.22 1.188.22 1.188s.742-.314.94-.887a.948.948 0 00.048-.26c.094.133.212.252.35.352.645.453 1.62.35 1.62.35s-.069-.84-.713-1.294a1.75 1.75 0 00-.465-.218c.282-.04.549-.137.777-.286.627-.435.695-1.246.695-1.246l-.002.006zm6.942-8.809c-.061.127-.1.26-.117.397a1.277 1.277 0 00-.449-.392c-.607-.308-1.437-.066-1.437-.066s.15.743.762 1.05c.183.09.388.14.599.149a1.866 1.866 0 00-.711.27c-.629.436-.7 1.244-.7 1.244s.949.125 1.576-.305a1.41 1.41 0 00.337-.33c-.032.168-.026.34.018.507.175.601.909.961.909.961s.447-.615.271-1.216a1.365 1.365 0 00-.388-.588c.247.084.511.124.777.12a2.704 2.704 0 001.467-.574 2.762 2.762 0 00-1.523-.475 2.075 2.075 0 00-.399.057 1.37 1.37 0 00.254-.347c.328-.654-.035-1.405-.035-1.405s-.894.292-1.219.941l.008.002zm-17.608-9.91c.073.013.147.02.22.022a1.26 1.26 0 00-.184.218c-.22.394-.274.84-.153 1.264a2.219 2.219 0 001.19-.76c.106-.164.172-.344.196-.53.074.156.184.297.323.416.507.436 1.36.39 1.36.39s0-.725-.508-1.152a1.54 1.54 0 00-.507-.266c.138-.008.275-.032.406-.072.41-.162.744-.44.947-.787a2.293 2.293 0 00-1.315-.048c-.135.046-.26.108-.373.185a.996.996 0 00.03-.233 1.648 1.648 0 00-.581-1.09 1.65 1.65 0 00-.586 1.09c.001.15.034.297.096.436a1.491 1.491 0 00-.307-.096c-.693-.129-1.383.277-1.383.277s.434.612 1.13.739v-.003zm16.539 25.079a3.105 3.105 0 00-1.627 0c-.264.09-.506.22-.713.388a1.13 1.13 0 00-.109-.299c-.33-.588-1.168-.83-1.168-.83s-.304.712.026 1.308c.037.064.081.126.132.185a1.63 1.63 0 00-.254.037c-.744.174-1.175.86-1.175.86s.774.406 1.523.232c.046-.014.092-.029.137-.046a.969.969 0 00-.043.237c-.036.637.581 1.177.581 1.177s.678-.49.716-1.127a1.03 1.03 0 000-.11c.028.017.05.036.081.052.665.35 1.556.146 1.556.146s-.186-.772-.851-1.123a1.526 1.526 0 00-.271-.11 2.42 2.42 0 00.254-.064 2.61 2.61 0 001.226-.918l-.021.005zM67.741 14.558c.028 0 .051-.015.079-.021a.755.755 0 00-.023.133c.016.355.184.693.47.95.314-.233.518-.556.576-.909a.83.83 0 00-.02-.218c.06.04.126.075.195.105.407.135.858.14 1.27.013a1.612 1.612 0 00-.788-.846 1.39 1.39 0 00-.36-.09c.067-.042.13-.09.185-.143.241-.271.367-.605.358-.946a1.87 1.87 0 00-1.043.436 1.043 1.043 0 00-.183.246.958.958 0 00-.106-.316 1.742 1.742 0 00-.945-.671 1.33 1.33 0 00.02 1.05c.073.126.172.238.292.332a1.311 1.311 0 00-.198.02c-.41.109-.76.34-.987.653.358.203.788.288 1.213.24l-.005-.018zm22.294-7.59a2.024 2.024 0 00.405-1.654c-.117-.576-.486-1.09-1.032-1.439a2.026 2.026 0 00-.404 1.654c.116.575.485 1.09 1.03 1.439zm4.28-.898c.182.126.394.216.622.266.227.049.464.055.694.018.23-.037.45-.116.64-.232.192-.116.352-.266.47-.44a1.745 1.745 0 00-.622-.266 1.888 1.888 0 00-.695-.019 1.78 1.78 0 00-.64.232 1.503 1.503 0 00-.47.44zm-1.778.577a2.002 2.002 0 00-.91 1.04c.493.119 1.02.082 1.484-.103.434-.246.756-.613.911-1.04a2.477 2.477 0 00-1.485.103zM93.86 2.18c1.028-.592 1.366-1.708 1.366-1.708s-1.33-.155-2.361.436c-1.03.59-1.366 1.708-1.366 1.708s1.33.155 2.361-.436zM68.757 17.904c-.141.28-.172.592-.087.889.328-.127.6-.34.777-.608.14-.28.171-.593.086-.89-.328.127-.601.34-.779.609h.003zM64.1 22.98a2.24 2.24 0 00-1.18.202c-.332.201-.58.489-.706.82.409.04.822-.031 1.18-.203.333-.2.58-.488.706-.82zm31.427-10.462c.101-.102 0-.154-.105-.146-.103.01-.606.031-.606.031v-.617c0-.235-.155-.148-.231-.059-.15.162-.32.308-.508.436a1.212 1.212 0 00-.785.1.942.942 0 00-.484.539c-.112.279-.185.514-.376.536-.19.022-.3-.294-.342-.793-.043-.5-.368-.992-.718-1.103-.35-.111-1.73-.368-1.985-.236-.257.133-.087.744.538 1.09-.668.162-.239.778.454.979-.48.218.025.654.487.793a3.227 3.227 0 00-.789.97c-2.03-.242-2.3.235-2.328.36-.043.183.18.396.42.477-.255.218-.625.595-.437.845.187.251.761.075 1.015-.074a.477.477 0 00.015.375c.056.12.16.218.292.28.657.243 1.43-.772 1.447-1.309.162.044 1.053.162 1.317.031-.325.743.137 1.022.35.896-.06 1.09.556.926.744.771 0 .198.026 1 .487.985.462-.015.985-1.022 1.155-1.961.17-.94.051-1.506-.47-1.927.318-.23.572-.517.745-.841a2.15 2.15 0 00.258-1.033s.35-.273.455-.375l-.015-.02zM71.856 9.936c.155.852.411 1.388.934 1.83-.642.323-.581 1.008-.368 2.101.213 1.095.84 1.744 1.19 1.683.35-.061.43-.486.35-.933.744.604.881-.316.711-.793.762.074.437-.632.307-.89.087.044 1.122.112 1.371.016.462 1.367 1.241 1.478 1.49 1.286.249-.192.17-.397.102-.691.324.052.634-.028.728-.218.094-.19-.043-.331-.254-.47a1.82 1.82 0 00.508-.081c.127-.037.436-.218.145-.58-.292-.362-2.003-.353-2.353-.347-.22-.28-.46-.547-.719-.802.137-.012.27-.05.388-.112a.911.911 0 00.298-.24.336.336 0 00-.05-.266.436.436 0 00-.242-.17c.307-.088.761-.412.761-.654 0-.242-.274-.36-.411-.412.137-.06.95-.5.599-.905-.35-.405-2.079.242-2.328.436-.248.194-.274.582-.274.896 0 .314-.076.595-.342.639-.267.043-.3-.155-.401-.45.253-.028.23-.257.137-.257-.094 0-.214-.052-.472-.218a1.284 1.284 0 00-.529-.2 1.366 1.366 0 00-.576.04 5.917 5.917 0 00-.335-.552c-.13-.168-.238 0-.238.124s.043.617.043.617l-.66-.08c-.18-.023-.17.086-.076.176.094.089.573.492.573.492l-.007-.015zM82.83 21.297c0 .157 0 .381.49.353a2.23 2.23 0 001.067-.448c.298-.235.51-.539.61-.875.31-.902-.055-2.018-.89-2.5-.835-.481-2.15-.24-2.647.186-.549.47-.947 1.381-.457 2.048.165.241.409.436.7.56.291.126.618.177.942.146.325-.042.624-.179.846-.387.223-.209.355-.477.375-.759a.63.63 0 00-.087-.486.768.768 0 00-.289-.259.935.935 0 00-.807-.024.792.792 0 00-.31.24.621.621 0 00-.054.692c.061.11.154.203.27.273a.805.805 0 01-.525.008.666.666 0 01-.384-.309c-.253-.392-.375-1.381 1.016-1.656 1.39-.275 1.825 1.079 1.837 1.525.013.447-.101 1.54-1.713 1.668l.01.004zm.548-12.734a.465.465 0 00-.103-.276.587.587 0 00-.262-.184c-.228-.107-1.015-.362-1.335-.95-.32-.589-.389-1.323.238-1.822.627-.5 1.747-.294 2.077-.04a.93.93 0 01.346.424.782.782 0 01.02.518.748.748 0 01-.393.371.934.934 0 01-.58.05.65.65 0 00.221-.253.55.55 0 00-.081-.608.72.72 0 00-.282-.203.842.842 0 00-.712.036.684.684 0 00-.251.23.563.563 0 00-.09.307.96.96 0 00.1.426c.067.135.164.257.286.358.123.102.268.181.427.234.159.053.329.077.499.072.982 0 1.523-.597 1.523-1.373s-.833-1.39-2.03-1.39c-1.199 0-2.214.921-2.191 1.832.023.911.708 2.077 2.568 2.234l.005.007zm24.87 18.575c-.213-.146-3.464-1.58-7.32-1.925l.188-.065c3.48-1.268 5.206-2.89 5.736-3.55 1.099.25 2.031-.129 2.412-.615.38-.486.548-1.802-.285-2.5a3.26 3.26 0 00-1.686-.662 3.444 3.444 0 00-1.819.31c-1.269.568-1.051 2.303-.695 2.615.355.311.558.266.672.207-.127-.098-.558-.412-.457-1.216.059-.415.304-.794.684-1.056a2.082 2.082 0 011.347-.346c1.119.048 1.906.637 1.929 1.617.016.17-.01.341-.076.502-.066.16-.171.308-.308.431-.136.123-.302.22-.486.285a1.612 1.612 0 01-.579.09c-.559-.02-1.176-.187-1.153-.793a.405.405 0 01.087-.281.527.527 0 01.269-.177c.024.11.083.213.17.296a.738.738 0 00.324.178.832.832 0 00.385.01.753.753 0 00.335-.164.6.6 0 00.189-.288.533.533 0 00-.012-.33.607.607 0 00-.208-.278.771.771 0 00-.346-.145 1.73 1.73 0 00-.751-.017 1.59 1.59 0 00-.665.3c-.164.134-.286.3-.356.485s-.086.381-.046.572c.04.192.134.371.275.523.141.152.323.272.53.349-1.284 1.249-4.089 2.907-6.708 3.382a16.84 16.84 0 01-5.838.059c-.155-.397-.822-.985-1.916-.926-.341.001-.671.102-.937.285s-.45.438-.525.724a.572.572 0 00-.064.345.61.61 0 00.153.324.761.761 0 00.325.21.879.879 0 00.404.036.821.821 0 00.369-.147.658.658 0 00.227-.29.565.565 0 00.022-.348.63.63 0 00-.19-.309c.672-.113 1.19.419 1.19 1.066a1.11 1.11 0 01-.315.723 1.444 1.444 0 01-.764.408c-.307.044-1.269.25-1.916-.69-.647-.942.223-1.962.53-2.383.308-.42 1.49-1.471 2.072-2.057a52.621 52.621 0 012.114-2.03c.23-.154.499-.261.785-.313a2.2 2.2 0 01.865.02c.822.176 1.668.568 2.762 1.333s2.259 1.43 2.716 1.06c-.297-.138-1.166-.452-1.777-.981-.576-.495-2.432-2.123-3.998-2.234a18.033 18.033 0 001.909-1.598c3.721 1.007 7.389.233 8.615-.266-.092-.117-.32-.137-.762-.039-3.393.767-6.013.242-7.338-.218.284-.287.591-.612.932-.987 1.695-1.868 1.952-4.749 1.916-4.997-.036-.249-.086-.353-.274-.382 0 .558.033 2.5-2.381 5.174-.36.399-.668.715-.947.98-.642-1.884-.254-4.99-.066-6.078.422.051.85.043 1.27-.023 1.824-.275 2.464-1.881 2.362-2.755-.101-.874-.543-2.116-2.304-2.293-.49-.05-.571.185-.582.264.239 0 1.325.048 1.884.695.558.647.65 1.931.046 2.598-.605.667-1.963 1.177-2.889.872-.927-.306-1.594-1.062-1.358-1.999s1.152-1.09 1.576-1.04c.424.05 1.198.295 1.257.872a.515.515 0 01-.053.357.637.637 0 01-.285.264.514.514 0 00.013-.106.566.566 0 00-.108-.331.705.705 0 00-.293-.234.84.84 0 00-.768.05.658.658 0 00-.247.27.55.55 0 00-.047.342.6.6 0 00.168.312.754.754 0 00.333.19h.033a.82.82 0 00.195.026h.066c.238.014.476-.014.7-.082a1.82 1.82 0 00.605-.315c.49-.435.327-1.179.183-1.42-.285-.48-.843-.872-1.975-.774-1.27.117-2.42 1.244-2.03 2.5.109.4.343.769.678 1.064a2.77 2.77 0 001.22.614c-.627 2.79-.325 5.54-.163 6.684-1.162.941-1.776.917-3.518 2.365-2.363 1.961-2.98 3.395-4.708 3.293-1.729-.103-2.122-4.19-2.284-6.103-.02-.3-.01-.601.032-.9.254-.675.942-1.54 2.158-1.615 0-.161-.137-.31-.508-.25a4.632 4.632 0 00-1.347.551 11.61 11.61 0 011.312-2.64c.386-.553 1.135-1.226 1.777-2.135.784-.436 2.845-1.11 4.333-1.308a.45.45 0 00-.218-.196.553.553 0 00-.313-.039 19.667 19.667 0 00-3.358.822c.44-.878.767-1.793.977-2.731.05-.436-.018-.545-.239-.604-.032.654-.65 2.18-1.165 3.117-.515.937-1.609 1.676-2.568 3.175a16.585 16.585 0 00-1.866 4.468c-1.096-.369-2.363-2.367-2.602-2.833-.238-.467-.906-2.101-2.157-3.396a13.451 13.451 0 00-2.995-2.308.87.87 0 00-.617 0c1.302.589 2.739 2.057 3.442 2.897.703.839 1.421 2.397 1.848 3.487.426 1.09 1.248 1.867 2.03 2.602.782.734 1.335 2.18 1.285 3.557-.051 1.377-1.44 2.5-2.381 2.543-.942.043-1.711-1.044-3.254-2.28a19.386 19.386 0 00-.67-.51c.804-2.988.215-5.418-.1-6.148 0 0-.274-.235-.05.942.203 1.07-.135 3.818-.455 4.78a24.69 24.69 0 00-2.591-1.546c-.668-.338-2.721-1.308-4.023-2.615-1.302-1.308-2.313-3.734-2.396-4.263-.155.074-.254.25-.17.617a13.646 13.646 0 001.677 3.41c.856 1.162 2.894 2.91 3.699 3.337.804.427 2.792 1.66 3.698 2.454.906.793 1.883 2.206 2.053 2.955a11.16 11.16 0 00-4.074-.338 5.794 5.794 0 00-2.284.872 8.915 8.915 0 01-3.104-1.244 7.532 7.532 0 01-2.247-2.219 3.63 3.63 0 01.357-1.64 4.172 4.172 0 011.082-1.387c-.223-.118-.428.015-.563.133-.135.117-1.071 1.09-1.328 2.15-1.04-1.928-1.23-3.911-1.31-4.663-.273.015-.306.192-.306.353a13.058 13.058 0 001.015 4.409c.688 1.528 1.812 2.883 3.27 3.94.684.456 1.916.558 1.507 1.06-.409.5-1.234.058-3.064.926-.63.306-1.226.663-1.776 1.068l-.384-.419c.579-.573.536-1.46.35-2.099 1.153.236 1.963-.02 1.975-.392.013-.373-.74-.51-1.243-.373.342-.196.89-.812.558-1.078-.333-.266-.762 0-1.038.263.023-.165.091-.793-.581-.765-.673.029-.49 1.225-.343 1.744-.762.628-2.523 1.308-2.866 1.37a3.441 3.441 0 00-1.37.609c-.16.162-.261.36-.29.572a.944.944 0 00.13.613 3.312 3.312 0 00-.216.49c-.046.2.063.2.137.147.114-.079.434-.362.434-.362.03.15.05.3.058.451 0 .157.137.129.17.059.059-.148.139-.29.239-.42.114-.118.708-.295 1.198-.334.437-.035 1.65.105 2.378-.264l.412.401c-.57.428-1.099.893-1.584 1.39-.239.264-.325.559-.17.654 1.374-1.523 3.262-2.646 5.406-3.216.726-.16 1.287-.172 1.993.161.08 1.962 1.7 2.572 2.538 2.513.838-.059 1.454-.369 1.696-.97.105-.268.132-.555.078-.834a1.61 1.61 0 00-.388-.768l-.015.018a.894.894 0 00-.356-.157.972.972 0 00-.4.002.89.89 0 00-.354.162.725.725 0 00-.225.284.625.625 0 00-.046.341.664.664 0 00.143.32c.077.096.18.174.3.228a.951.951 0 00.547.068c-.02.354-.412.528-.81.528-.462 0-1.015-.53-1.043-1.338-.028-.809.855-1.617 2.03-1.617 1.176 0 2.176.954 2.602 1.763.427.808.65 2.013.307 2.896s-1.919 3.91-2.944 6.292c-1.026 2.382-1.917 5.616-2.26 6.614a14.471 14.471 0 01-1.096 2.529c-.274.412-.24.793.206 1.028.447.236 3.787 1.269 7.739-.087.685-.235.761-.793.241-.97-.52-.176-1.576-.205-2.431-.852-.856-.647-1.097-1.763-.993-2.91.104-1.146 1.13-4.358 2.157-6.79 1.028-2.433 2.539-4.141 3.732-4.176 1.193-.035 1.952 1.743 2.327 2.528.376.785 1.541 5.557 1.678 8.173.137 2.615-1.335 3.41-2.226 3.556-.89.147-1.985-.089-2.066-1.107-.053-.677.525-1.09.97-.745-.308.42-.08 1.01.507 1a1.05 1.05 0 00.36-.073.926.926 0 00.298-.189.775.775 0 00.187-.274.688.688 0 00.046-.316 1.04 1.04 0 00-.136-.47 1.214 1.214 0 00-.346-.381 1.445 1.445 0 00-.497-.23 1.58 1.58 0 00-.562-.037c-1.358.137-2.056 1.234-2.03 2.147.025.913.444 2.816 3.594 2.816 2.226 0 2.602-.637 4.69-.754 2.09-.118 4.45.736 5.752.736.762 0 .917-.165 1.039-.41.253-.499-.285-.943-.696-1.266a5.732 5.732 0 01-1.61-2.293c-.443-1.146-1.197-4.653-1.71-6.18-.513-1.528-2.325-5.054-2.569-5.586-.243-.532-.761-1.21.198-1.765 1.024-.614 1.832-1.458 2.335-2.44.394-.87.942-.87 1.747-.969.62-.078 1.594.055 3.46-.407 2.058-.024 6.761.653 9.46 2.044a.63.63 0 00-.099-.377.771.771 0 00-.313-.277v.035zM82.299 3.964a.46.46 0 00.228-.06.37.37 0 00.151-.158.308.308 0 00.023-.204.34.34 0 00-.112-.18.436.436 0 00-.21-.097.475.475 0 00-.238.02.404.404 0 00-.185.13.31.31 0 00-.038.331.353.353 0 00.09.115.421.421 0 00.133.076.47.47 0 00.157.027zM73.807 8.08a.45.45 0 00.228-.06.37.37 0 00.152-.158.307.307 0 00.023-.204.341.341 0 00-.112-.18.436.436 0 00-.211-.097.475.475 0 00-.238.02.404.404 0 00-.184.13.319.319 0 00-.07.196.33.33 0 00.121.25.448.448 0 00.29.103zm17.943 2.088a.32.32 0 00-.07-.196.404.404 0 00-.184-.13.474.474 0 00-.238-.02.436.436 0 00-.21.096.34.34 0 00-.113.181.307.307 0 00.024.204.37.37 0 00.151.159.46.46 0 00.52-.044.33.33 0 00.12-.25zm-2.98 11.466c0 .07.024.138.07.196a.4.4 0 00.184.13.475.475 0 00.237.02.436.436 0 00.21-.097.341.341 0 00.113-.18.307.307 0 00-.023-.204.37.37 0 00-.152-.159.46.46 0 00-.519.044.33.33 0 00-.12.25zm15.1-3a.32.32 0 00-.069-.195.41.41 0 00-.185-.13.476.476 0 00-.238-.02.435.435 0 00-.21.096.34.34 0 00-.113.181.307.307 0 00.024.204c.031.065.084.12.151.158a.462.462 0 00.519-.043.327.327 0 00.121-.25zm6.675 2.764a.45.45 0 00.229-.06.366.366 0 00.151-.158.301.301 0 00.024-.204.34.34 0 00-.113-.18.436.436 0 00-.21-.097.476.476 0 00-.238.02.402.402 0 00-.184.13.315.315 0 00-.07.196.33.33 0 00.121.25.445.445 0 00.29.103zm-47.183-1a.46.46 0 00-.229.06.37.37 0 00-.151.158.306.306 0 00-.023.204.34.34 0 00.112.18.468.468 0 00.448.077.404.404 0 00.185-.13.318.318 0 00.069-.196.33.33 0 00-.12-.25.448.448 0 00-.291-.103zm11.709 2.615c0 .07.024.138.07.196a.386.386 0 00.184.13.475.475 0 00.237.02.437.437 0 00.21-.096.341.341 0 00.113-.18.308.308 0 00-.023-.205.372.372 0 00-.152-.158.46.46 0 00-.519.044.33.33 0 00-.12.25zm-4.178-7.614a.46.46 0 00-.229.059.37.37 0 00-.151.158.307.307 0 00-.023.204.341.341 0 00.112.181c.058.05.13.083.21.097.08.013.163.006.238-.02a.404.404 0 00.185-.13.319.319 0 00.069-.196.33.33 0 00-.12-.25.448.448 0 00-.291-.103zm7.508 2.942a.46.46 0 00.228-.06.372.372 0 00.152-.158.308.308 0 00.023-.204.341.341 0 00-.112-.181.436.436 0 00-.21-.097.475.475 0 00-.238.02.404.404 0 00-.185.13.319.319 0 00-.07.197.33.33 0 00.121.25.447.447 0 00.291.103zm-7.094 6.723a.319.319 0 00-.07-.196.405.405 0 00-.184-.13.475.475 0 00-.238-.02.436.436 0 00-.21.096.341.341 0 00-.113.181.308.308 0 00.023.204c.031.065.084.12.152.159a.46.46 0 00.52-.044.33.33 0 00.12-.25zm-5.684 3.41a.32.32 0 00-.069-.195.404.404 0 00-.184-.13.473.473 0 00-.238-.02.436.436 0 00-.21.096.34.34 0 00-.113.181.306.306 0 00.023.204.37.37 0 00.152.158.46.46 0 00.519-.043.33.33 0 00.12-.25zm41.397-5.35a.32.32 0 00-.069-.196.411.411 0 00-.185-.13.475.475 0 00-.238-.02.435.435 0 00-.21.097.34.34 0 00-.113.18.307.307 0 00.024.205.37.37 0 00.151.158.462.462 0 00.519-.044.327.327 0 00.121-.25zM60.474 59.121c-.42.314-.965.48-1.523.462-1.457 0-2.46-.837-2.46-2.112 0-1.175.866-2.112 2.44-2.112a2.405 2.405 0 011.45.416l-.376.532a2.02 2.02 0 00-1.077-.275c-.885 0-1.553.55-1.553 1.439-.013.19.02.38.098.557.078.178.199.34.354.476.155.135.342.242.548.311.206.07.426.102.647.094.409 0 .806-.114 1.13-.327l.322.538zm1.645-3.684c.254-.01.899-.028 1.376-.028 1.137 0 1.566.436 1.566 1.011a.86.86 0 01-.17.557c-.122.167-.3.297-.51.374v.01c.25.047.47.168.625.343a.828.828 0 01.212.61c0 .841-.761 1.227-1.777 1.227-.436 0-1.048-.01-1.327-.028l.005-4.076zm.838.654v1.035h.566c.388 0 .708-.17.708-.544 0-.334-.3-.508-.762-.508-.18.006-.363.013-.512.024v-.007zm0 1.66v1.09c.182.02.366.029.55.029.566 0 .871-.205.871-.59 0-.345-.307-.522-.83-.522l-.591-.006zm4.178-2.331h2.759v.673h-1.922v1.018h1.716v.674h-1.716v1.059h1.988v.673h-2.825V55.42zm4.137 0h3.93v.673h-1.547v3.422h-.837v-3.417h-1.546v-.678zm7.945.673h-1.389l-.096.772c-.28 2.38-.899 2.765-1.838 2.648l.02-.713c.368.042.85-.094 1.061-2.56l.069-.82h3.003v4.1h-.83v-3.427zm3.807.73c.176-.019.353-.028.53-.028 1.178 0 1.744.521 1.744 1.32 0 .873-.708 1.41-1.926 1.41-.45 0-.906-.01-1.186-.01v-4.089h.838v1.397zm0 .674v1.347c.15 0 .287.017.45.017.611 0 .939-.24.939-.719 0-.436-.34-.667-.927-.667-.155.002-.31.01-.464.026l.002-.004zm2.894-2.075h.83v4.097h-.833l.003-4.097zm2.964 4.093v-4.089h.838v2.912l2.5-2.912h.736v4.093h-.847v-2.907l-2.5 2.905-.727-.002zm1.539-5.087c.055.218.238.34.578.34.34 0 .508-.087.546-.34h.782c-.02.504-.579.837-1.328.837-.817 0-1.314-.34-1.36-.837h.782zm6.926.994h.853l1.627 1.911 1.554-1.91h.789v4.096h-.83v-2.96l-1.505 1.818h-.122l-1.523-1.8v2.942h-.837l-.005-4.097zm6.945 4.097v-4.093h.838v2.912l2.5-2.912h.736v4.093h-.838v-2.907l-2.5 2.905-.736.002zm6.209 0v-4.093c.254 0 1.015-.01 1.355-.01 1.404 0 1.846.653 1.846 1.307 0 .654-.607 1.327-1.744 1.327-.142 0-.417 0-.62-.017v1.48l-.837.006zm.837-3.421v1.257c.197.018.394.028.592.029.507 0 .886-.205.886-.654 0-.45-.307-.637-.879-.637a9.278 9.278 0 00-.593.005h-.006z" fill="#A4D55D"/></g><defs><clipPath id="clip0"><path fill="#fff" d="M0 0h170v108H0z"/></clipPath></defs></svg>