<svg width="65" height="44" fill="none" xmlns="http://www.w3.org/2000/svg"><g clip-path="url(#clip0)"><path d="M22.945 37.742h9.677L28.8 26.843h1.876L21.679.4l-8.997 26.443h1.876l-3.823 10.899h9.678v3.354H14.25v2.532h14.855v-2.532h-6.161v-3.354zm-8.638-2.532l3.823-10.9h-1.912l5.46-16.048L27.14 24.31h-1.912l3.824 10.9h-6.106V23.117h-2.532V35.21h-6.106z" fill="#fff"/></g><g clip-path="url(#clip1)"><path d="M44.21 35.737a33.457 33.457 0 004.228-4.664c3.099-4.142 4.736-8.453 4.736-12.468 0-4.015-1.637-8.327-4.736-12.468-2.305-3.082-4.594-4.987-4.69-5.067l-.81-.67-.81.67c-.097.08-2.386 1.985-4.691 5.067-3.098 4.141-4.736 8.453-4.736 12.468 0 4.015 1.638 8.326 4.736 12.468a33.484 33.484 0 004.229 4.664v5.347h-6.19v2.544H50.4v-2.544h-6.19v-5.347zm-8.965-17.132c0-6.85 5.57-12.814 7.694-14.84 2.126 2.022 7.692 7.972 7.692 14.84 0 5.735-3.904 10.848-6.421 13.55v-9.13h-2.544v9.135c-2.518-2.696-6.421-7.803-6.421-13.555z" fill="#fff"/></g><defs><clipPath id="clip0"><path fill="#fff" transform="translate(.097 .4)" d="M0 0h43.228v43.228H0z"/></clipPath><clipPath id="clip1"><path fill="#fff" transform="translate(21.303 .4)" d="M0 0h43.228v43.228H0z"/></clipPath></defs></svg>