<svg width="19" height="14" viewBox="0 0 19 14" fill="none" xmlns="http://www.w3.org/2000/svg">
<path d="M18.8045 6.22518L8.29023 0.251042C7.47924 -0.210495 6.3692 0.0383278 5.83458 0.79841L3.79771 3.6912C3.59781 3.97545 3.49218 4.30862 3.49218 4.65533C3.49218 5.2543 3.81628 5.81221 4.33759 6.11111L6.55507 7.38332L6.1545 7.91437C5.93755 8.20161 5.8183 8.55775 5.8183 8.91692C5.8183 9.28627 5.95445 9.63371 6.17376 9.92091L5.58358 10.8031H2.71678V9.64389C2.71678 9.43081 2.54337 9.26255 2.32907 9.26255H0.778329C0.564032 9.26255 0.390625 9.43081 0.390625 9.64389V13.4989C0.390625 13.712 0.564032 13.8844 0.778329 13.8844H2.32911C2.54341 13.8844 2.71681 13.712 2.71681 13.4989V13.1141H5.58361C6.36316 13.1141 7.08667 12.7294 7.51904 12.0846L8.15452 11.1367C8.27689 11.1631 8.40033 11.1871 8.52648 11.1871C9.1436 11.1871 9.72438 10.8603 10.0417 10.334L10.4677 9.62804L13.7672 11.521C13.8266 11.5553 13.8936 11.5726 13.961 11.5726C13.9985 11.5726 14.036 11.5673 14.0727 11.5564C14.1749 11.5255 14.2601 11.4544 14.3078 11.3595L14.5948 10.7879C14.6419 10.7915 14.6873 10.8016 14.7352 10.8016C16.2315 10.8016 17.4491 9.59088 17.4491 8.10307C17.4491 7.93968 17.4248 7.77131 17.3887 7.59918L18.7856 6.90478C18.9135 6.84115 18.9957 6.71279 18.9999 6.57048C19.0036 6.42847 18.9287 6.29559 18.8045 6.22518ZM1.9414 13.1141H1.166V10.0329H1.94137V13.1141H1.9414ZM6.87386 11.6589C6.58575 12.0884 6.1034 12.3449 5.58358 12.3449H2.71678V11.5746H5.58358C5.84407 11.5746 6.08522 11.4464 6.22872 11.2316L6.76559 10.4313L7.43138 10.8281L6.87386 11.6589ZM9.37684 9.9407C9.10577 10.3887 8.46782 10.5482 8.01651 10.2785L7.03328 9.69245C6.76221 9.53109 6.59371 9.23547 6.59371 8.92139C6.59371 8.72807 6.65807 8.53662 6.77467 8.38165L7.23133 7.77679L9.79591 9.2468L9.37684 9.9407ZM13.7982 10.6516L4.7249 5.45083C4.44285 5.2891 4.26756 4.98745 4.26756 4.6636C4.26756 4.47591 4.32473 4.29573 4.433 4.1419L5.40639 2.76076L15.0006 8.25949L13.7982 10.6516ZM14.9879 10.0086L15.7995 8.39403L16.6607 7.96629C16.665 8.01356 16.6737 8.06248 16.6737 8.1082C16.6737 9.08403 15.9365 9.88401 14.9879 10.0086ZM15.5238 7.66988L5.85286 2.12724L6.46991 1.25175C6.67399 0.962126 7.00791 0.789094 7.36381 0.789094C7.5535 0.789094 7.7409 0.838382 7.90558 0.932011L17.791 6.54387L15.5238 7.66988Z" fill="#9FC460"/>
</svg>
