<svg width="18" height="18" viewBox="0 0 18 18" fill="none" xmlns="http://www.w3.org/2000/svg">
<path d="M7.77825 17.0102C3.95875 16.6617 1.07848 14.9189 1.07848 12.9561C1.07848 12.4973 1.23407 12.0436 1.54095 11.6077C1.65421 11.4467 1.62243 11.2194 1.46993 11.0999C1.31744 10.9804 1.10204 11.014 0.988746 11.1748C0.591856 11.7387 0.390625 12.338 0.390625 12.9561C0.390625 14.1526 1.16566 15.2941 2.57301 16.1703C3.89997 16.9966 5.72756 17.5517 7.71903 17.7333C7.7291 17.7342 7.73911 17.7347 7.74905 17.7347C7.92559 17.7347 8.07582 17.5921 8.09133 17.403C8.10763 17.2033 7.96751 17.0274 7.77825 17.0102Z" fill="#9FC460"/>
<path d="M9.28103 17.0742L9.26053 17.0743C9.07058 17.0754 8.91743 17.2387 8.91846 17.4392C8.91949 17.639 9.07326 17.8002 9.26235 17.8002C9.26297 17.8002 9.26363 17.8002 9.26425 17.8002L9.28099 17.8001C9.47094 17.8001 9.62492 17.6376 9.62492 17.4372C9.62492 17.2367 9.47098 17.0742 9.28103 17.0742Z" fill="#9FC460"/>
<path d="M17.5414 11.3883C17.7259 11.3818 17.8737 11.2223 17.8737 11.026C17.8737 10.8256 17.7197 10.6631 17.5297 10.6631H16.8369C16.647 10.6631 16.493 10.8256 16.493 11.026V11.7572C16.493 11.9576 16.647 12.1201 16.8369 12.1201C16.935 12.1201 17.0232 12.0766 17.0858 12.0071C17.2361 12.3183 17.3121 12.6364 17.3121 12.9565C17.3121 14.9196 14.4312 16.6625 10.6108 17.0107C10.4215 17.028 10.2813 17.2038 10.2977 17.4035C10.3132 17.5926 10.4634 17.7353 10.64 17.7353C10.6499 17.7353 10.6599 17.7348 10.6699 17.7339C12.6618 17.5524 14.4897 16.9973 15.8171 16.171C17.2247 15.2947 18 14.1531 18 12.9565C18 12.4166 17.8457 11.8896 17.5414 11.3883Z" fill="#9FC460"/>
<path d="M9.19451 3.63013C9.00456 3.63013 8.85059 3.79265 8.85059 3.99306V4.78528C8.85059 4.98569 9.00456 5.14821 9.19451 5.14821C9.38446 5.14821 9.53844 4.98569 9.53844 4.78528V3.99306C9.53844 3.79265 9.38446 3.63013 9.19451 3.63013Z" fill="#9FC460"/>
<path d="M15.114 4.22171L9.36745 0.720517C9.26104 0.655661 9.12994 0.655661 9.02353 0.720517L3.27694 4.22171C3.17053 4.28653 3.10498 4.40637 3.10498 4.53602V11.5384C3.10498 11.668 3.1705 11.7879 3.27694 11.8527L9.02353 15.3539C9.07673 15.3863 9.1361 15.4025 9.19549 15.4025C9.25489 15.4025 9.31425 15.3863 9.36745 15.3539L15.114 11.8527C15.2205 11.7879 15.286 11.668 15.286 11.5384V4.53602C15.286 4.40637 15.2205 4.28653 15.114 4.22171ZM8.85157 14.4109L4.13676 11.5384L4.46201 11.3402C4.62651 11.24 4.68288 11.018 4.58788 10.8444C4.49293 10.6708 4.28258 10.6113 4.11808 10.7116L3.7928 10.9098V5.16487L8.50482 8.03892L7.91423 8.39873C7.74973 8.49897 7.69336 8.72091 7.78835 8.8945C7.85205 9.01093 7.96764 9.07604 8.0865 9.07604C8.14483 9.07604 8.20399 9.06033 8.25816 9.02734L8.85157 8.66582V14.4109ZM9.19549 6.33904C9.00554 6.33904 8.85157 6.50156 8.85157 6.70197V7.41198L4.13659 4.53612L8.85157 1.66346V2.0763C8.85157 2.27671 9.00554 2.43923 9.19549 2.43923C9.38544 2.43923 9.53942 2.27671 9.53942 2.0763V1.66346L14.2544 4.53612L9.53942 7.41198V6.70197C9.53942 6.50156 9.38544 6.33904 9.19549 6.33904ZM14.5982 10.9098L14.2729 10.7116C14.1084 10.6114 13.8981 10.6709 13.8031 10.8444C13.7081 11.018 13.7644 11.24 13.9289 11.3402L14.2542 11.5384L9.53942 14.4109V8.66582L10.1328 9.02734C10.187 9.06033 10.2461 9.07604 10.3045 9.07604C10.4233 9.07604 10.5389 9.01093 10.6026 8.8945C10.6976 8.72091 10.6413 8.49897 10.4768 8.39873L9.88616 8.03892L14.5982 5.16487V10.9098Z" fill="#9FC460"/>
<path d="M12.7003 9.75337L12.0501 9.35727C11.8856 9.25706 11.6753 9.31654 11.5803 9.4901C11.4853 9.66369 11.5417 9.88566 11.7062 9.98587L12.3564 10.382C12.4105 10.415 12.4696 10.4307 12.528 10.4307C12.6469 10.4307 12.7625 10.3656 12.8262 10.2491C12.9211 10.0756 12.8648 9.85362 12.7003 9.75337Z" fill="#9FC460"/>
<path d="M6.81005 9.49012C6.71506 9.31653 6.50475 9.25705 6.34025 9.35729L5.69009 9.7534C5.52559 9.85364 5.46922 10.0756 5.56421 10.2492C5.62791 10.3656 5.7435 10.4307 5.86236 10.4307C5.92069 10.4307 5.97985 10.415 6.03402 10.382L6.68417 9.98589C6.84867 9.88565 6.90504 9.66372 6.81005 9.49012Z" fill="#9FC460"/>
</svg>
