<svg width="170" height="108" viewBox="0 0 170 108" fill="none" xmlns="http://www.w3.org/2000/svg">
<g clip-path="url(#clip0)">
<path d="M47.9888 67.8054C47.8657 67.4603 47.8865 67.0891 48.0477 66.7558C48.209 66.4224 48.5005 66.1478 48.8721 65.9791L43.5418 65.8418C44.156 66.1011 44.6561 66.9533 44.4048 67.703C44.189 68.3568 39.8765 79.7224 38.7089 82.8084C34.5944 79.0816 30.8555 74.6662 29.5458 72.635L34.3228 67.642C35.2467 66.6939 36.9321 65.7394 37.8028 65.371L32.7592 65.1291C33.3735 65.3885 33.6552 66.2777 33.1882 66.7724L25.1241 75.3897V66.0183C25.1481 65.7306 25.253 65.4522 25.4299 65.207C25.6067 64.9618 25.8502 64.7571 26.1394 64.6104L21.1568 64.144C21.7203 64.4535 22.2559 65.1204 22.2559 65.419V84.4756C22.2559 84.7742 21.7229 85.4433 21.1568 85.7506L26.1394 85.3016C25.8502 85.155 25.6067 84.9503 25.4299 84.705C25.253 84.4598 25.1481 84.1814 25.1241 83.8937V77.2597L27.3705 74.9124C32.447 81.5138 37.2164 85.2559 43.2118 87.0669L43.7194 86.7705C42.4011 85.8907 41.1497 84.9393 39.973 83.9221L41.9147 78.5586L49.3696 78.3406L51.1794 82.7626C51.3799 83.3707 50.7682 84.0703 50.2022 84.371L55.0985 84.164C54.6358 83.7698 54.288 83.2874 54.0832 82.7561C54.0832 82.7561 48.1969 68.4157 47.9888 67.8054ZM42.3742 77.2727L45.4505 68.7731L48.8493 77.0809L42.3742 77.2727ZM78.8642 107.316L73.8613 107.396C74.1943 107.219 74.448 106.951 74.5816 106.634C74.7151 106.318 74.7207 105.972 74.5974 105.653L69.4473 93.5179L64.6017 105.701C64.4815 106.049 64.4995 106.421 64.653 106.759C64.8065 107.098 65.0867 107.382 65.4495 107.569L61.7056 107.741C62.2538 107.322 62.4112 106.993 62.7209 106.333C62.7209 106.333 68.3634 92.4936 68.6198 91.7875C68.717 91.4568 68.6964 91.1087 68.5606 90.7881C68.4249 90.4676 68.1802 90.1894 67.8583 89.9895L72.4272 89.8282C71.7977 90.0876 71.3586 91.0225 71.6657 91.8267L77.6408 105.903C77.9301 106.413 78.2652 107.056 78.8642 107.316ZM127.345 67.7139V83.1876C127.369 83.4753 127.474 83.7537 127.651 83.9989C127.828 84.2441 128.071 84.4488 128.36 84.5955L123.378 84.3776C123.944 84.0681 124.477 83.4012 124.477 83.1004V73.5372L117.014 73.6767V82.7147C117.038 83.0024 117.143 83.2808 117.32 83.526C117.497 83.7712 117.74 83.9759 118.03 84.1226L113.047 83.9896C113.613 83.6802 114.146 83.0133 114.146 82.7147V67.8032C114.146 67.5047 113.613 66.8356 113.047 66.5261L118.03 66.3954C117.74 66.542 117.497 66.7467 117.32 66.9919C117.143 67.2372 117.038 67.5156 117.014 67.8032V72.4018L124.477 72.2623V67.8272C124.477 67.5286 123.944 66.8596 123.378 66.5523L128.36 66.306C128.071 66.4524 127.828 66.6568 127.651 66.9016C127.474 67.1465 127.369 67.4244 127.345 67.7117V67.7139ZM148.621 65.881V84.6543C148.645 84.942 148.75 85.2204 148.926 85.4656C149.103 85.7109 149.347 85.9156 149.636 86.0622L144.651 85.6503C145.214 85.3409 145.75 84.674 145.75 84.3732V66.1534C145.75 65.8549 145.217 65.1858 144.651 64.8763L149.633 64.4753C149.345 64.622 149.102 64.8265 148.926 65.0713C148.749 65.3161 148.645 65.5939 148.621 65.881ZM170.003 88.2656L165.02 87.6292C165.584 87.3198 166.119 86.6528 166.119 86.3521V68.2152C165.82 68.723 165.536 69.1697 165.333 69.4749C162.287 74.0712 158.109 80.5898 157.512 81.6991C156.722 83.2638 156.127 84.8958 155.735 86.5679L155.482 86.5286V86.6027L153.743 86.4197V65.4778C153.743 65.1793 153.21 64.5102 152.644 64.2007L157.626 63.7125C157.337 63.8592 157.094 64.0639 156.917 64.3091C156.74 64.5543 156.635 64.8327 156.611 65.1204V80.5767C157.88 78.4518 161.579 72.7156 164.124 68.8886C165.249 67.1974 166.003 65.6609 166.109 64.8676V64.1615C166.109 63.8629 165.576 63.1938 165.01 62.8843L169.993 62.2305C169.704 62.3772 169.46 62.5819 169.283 62.8271C169.106 63.0723 169.002 63.3507 168.978 63.6384V86.8599C169.003 87.148 169.11 87.4265 169.288 87.6714C169.467 87.9163 169.712 88.1202 170.003 88.2656ZM85.1159 83.5625C87.2314 83.0755 89.0929 81.9887 90.3981 80.4786C93.0226 77.4427 93.5328 74.2412 91.0301 70.7803C88.6238 67.472 83.0549 65.8897 78.5926 67.448C75.039 68.6924 73.242 71.0157 72.5135 73.4828C71.8231 76.4446 72.6759 79.1623 74.7471 81.1281C77.2448 83.5058 81.5065 84.4495 85.1159 83.5625ZM74.9629 72.2296C75.4046 70.2115 76.7549 68.6924 79.5952 68.2435C82.0091 67.8621 84.0219 68.4048 85.8216 69.6819C89.3218 72.1686 90.4057 74.9495 90.1112 77.7892C89.7838 79.0969 89.3498 79.949 88.568 80.7053C86.4257 82.7496 82.8645 83.0721 79.8414 81.4245C77.557 80.1757 76.3539 78.6065 75.4807 76.6995C74.8067 75.288 74.6277 73.7382 74.9654 72.2405L74.9629 72.2296ZM66.4724 83.4208C64.6771 84.144 62.7344 84.5586 60.7537 84.6413C59.9443 84.6751 59.1333 84.6105 58.3449 84.4495C57.4692 84.2969 56.7153 83.9874 56.195 83.3903C56.1619 83.35 56.1478 83.3005 56.1553 83.2516C56.1628 83.2028 56.1915 83.1581 56.2356 83.1266C56.9692 82.5403 57.4057 82.2548 58.1571 81.6315C58.4074 82.0643 58.7588 82.4483 59.1893 82.7595C59.6199 83.0707 60.1204 83.3025 60.6598 83.4404C61.3121 83.5821 63.2158 83.8894 64.7794 82.7866C66.942 81.261 66.9496 77.774 64.6576 76.316C63.5052 75.5837 61.8249 75.0563 60.3298 75.381C59.7714 75.527 59.2739 75.7406 58.9871 76.2201C58.9871 75.2851 58.9871 74.3959 58.9668 73.4871C59.1144 73.6891 59.307 73.8641 59.5334 74.0021C59.7599 74.1401 60.0159 74.2384 60.2867 74.2913C61.0835 74.3017 61.8788 74.2285 62.6549 74.0734C63.3109 73.976 63.9131 73.6998 64.372 73.2857C64.831 72.8716 65.1225 72.3416 65.2033 71.7741C65.364 71.0006 65.2834 70.2043 64.9698 69.4661C64.3225 68.0909 62.9392 67.1189 61.1624 67.1625C60.2877 67.1911 59.4454 67.454 58.7536 67.9144C58.086 68.5377 57.685 68.651 57.3321 69.5533C57.3321 69.5664 57.289 69.5707 57.2433 69.5904C57.1418 68.4571 57.1697 67.8839 57.0047 66.7571C57.3514 66.811 57.7033 66.8358 58.0555 66.8312C58.5454 66.7763 59.0298 66.6903 59.5049 66.5741C61.3357 66.0645 63.3196 66.1419 65.0891 66.792C65.8744 67.0781 66.5841 67.4977 67.1755 68.0255C69.0513 69.6928 68.9904 71.8831 66.975 73.3324C66.3585 73.748 65.6862 74.0985 64.9723 74.3763C65.5713 74.6117 66.0282 74.7708 66.4648 74.9626C69.0462 76.1046 70.2976 78.1009 69.6782 80.2868C69.2645 81.7645 68.0614 82.7583 66.4724 83.4208ZM100.683 77.3861C98.9698 77.3861 95.1421 77.0177 95.1421 72.5369V68.1781C95.1421 67.8795 94.609 67.2104 94.043 66.901L99.0256 66.768C98.7364 66.9147 98.4929 67.1194 98.316 67.3646C98.1392 67.6098 98.0343 67.8882 98.0103 68.1759V72.295C98.0103 73.0294 98.3809 76.0392 101.94 76.0392C103.402 76.0392 104.386 75.7886 105.044 75.49V68.0408C105.044 67.7422 104.511 67.0732 103.945 66.7637L108.927 66.6307C108.638 66.7774 108.395 66.9821 108.218 67.2273C108.041 67.4725 107.936 67.7509 107.912 68.0386V82.4684C107.936 82.7561 108.041 83.0345 108.218 83.2797C108.395 83.5249 108.638 83.7296 108.927 83.8763L103.945 83.7673C104.508 83.4579 105.044 82.791 105.044 82.4924V76.6255C103.846 77.1376 102.44 77.3861 100.686 77.3861H100.683ZM135.612 73.0578V66.8334C135.636 66.5457 135.741 66.2673 135.918 66.0221C136.095 65.7769 136.338 65.5722 136.627 65.4255L131.645 65.735C132.211 66.0445 132.744 66.7114 132.744 67.0099V83.508C132.744 83.8066 132.211 84.4756 131.645 84.7851L136.627 85.0771C136.594 85.0641 136.566 85.0445 136.536 85.0292C137.775 85.1338 139.465 85.2711 140.29 85.3125C141.681 85.3823 144.565 84.0201 144.331 80.4634C144.07 76.4337 137.996 73.8532 135.615 73.0578H135.612ZM141.227 81.8429C141.001 82.9326 139.727 84.1182 137.721 83.9809C137.158 83.9417 136.239 83.8632 135.625 83.8087C135.616 83.7633 135.611 83.7174 135.61 83.6714V74.1693C136.734 74.7054 138.577 75.6948 139.645 76.6516C141.844 78.6043 141.442 80.8099 141.229 81.8451L141.227 81.8429ZM94.0151 104.11L96.396 106.224C93.746 108.706 88.8497 107.832 87.7786 107.579C86.6314 107.309 85.4536 107.146 84.2656 107.093C83.1296 107.078 81.9937 107.124 80.8644 107.231C81.2771 106.648 81.5022 105.982 81.5167 105.3V90.9441C81.5167 90.6455 80.9837 89.9764 80.4176 89.6691L91.6063 89.6822C92.0772 89.7031 92.5417 89.5812 92.9186 89.3379L94.7131 92.2103L94.3121 92.4282C94.3121 92.4282 92.8932 90.9027 89.9234 90.9027H84.4509C84.4509 90.9179 84.4509 90.9332 84.4509 90.9484V95.5448H88.7812C89.355 95.5545 89.9217 95.4343 90.4243 95.1964C90.9269 94.9584 91.3477 94.6111 91.6443 94.1892V97.9792C91.1621 97.5193 90.1214 96.6911 88.7812 96.6911H84.4458V105.919C85.0716 105.916 85.6965 105.958 86.314 106.045C86.9029 106.115 89.9006 106.389 91.5327 106.091C93.1648 105.792 93.6445 104.846 94.0202 104.11H94.0151ZM111.582 100.841C111.582 100.841 112.808 102.1 112.496 103.31C112.329 103.964 111.755 104.459 111.257 104.783C110.855 105.645 110.185 106.396 109.321 106.955C108.456 107.513 107.43 107.857 106.354 107.95C104.214 108.168 101.912 107.719 99.7972 105.537C97.6829 103.356 96.0102 99.5571 97.4367 95.0937C98.8962 90.5169 103.66 89.6125 105.579 89.5667C106.867 89.5477 108.142 89.792 109.298 90.2794C109.912 90.554 110.61 90.8068 111.278 90.7152L111.519 91.0378L108.392 93.4962C108.179 92.7835 107.483 90.8809 104.886 90.8809C102.29 90.8809 100.873 92.0534 100.269 94.5466C99.3683 98.2821 100.221 101.93 101.995 104.071C103.518 105.91 104.94 106.483 106.625 106.553C108.021 106.61 109.235 106.117 110.143 104.829C109.803 104.363 109.344 103.548 109.549 102.752C109.859 101.538 111.59 100.839 111.59 100.839L111.582 100.841ZM159.157 62.2654C159.157 62.2654 158.675 59.8942 160.089 58.2335C161.502 56.5728 164.282 56.2524 164.282 56.2524C164.282 56.2524 164.764 58.6236 163.35 60.2843C161.936 61.945 159.162 62.2698 159.162 62.2698L159.157 62.2654ZM32.3074 86.315C32.3074 86.315 31.5713 88.5882 29.4976 89.5711C28.1345 90.2249 26.5354 90.1464 25.5963 90.0222C23.8423 90.8002 20.1288 91.7657 16.3545 91.7657C11.712 91.7657 7.59239 90.676 4.08451 86.6703C0.772081 82.8847 -1.58089 75.2263 1.29242 67.5919C4.48302 59.1401 11.4734 57.5666 14.8873 57.5666C19.8598 57.5666 20.1085 59.4845 23.8449 59.6719L24.0352 60.0381L19.8268 63.4641C19.5907 62.1259 18.3876 58.8873 14.7046 58.8873C11.0216 58.8873 7.62537 61.605 5.94505 66.1752C4.06927 71.2794 4.58962 78.2796 7.53654 83.3772C9.80575 87.3001 13.0268 89.0654 15.9788 89.7999C17.8165 90.2554 21.4259 90.3033 24.9947 89.3858C25.3348 88.6601 26.1318 87.3197 27.6015 86.6245C29.6676 85.6372 32.3074 86.315 32.3074 86.315Z" fill="#D2B887"/>
<path d="M93.5198 3.06427C94.1793 3.09237 94.8117 3.29828 95.3271 3.65271C94.8292 4.03202 94.1867 4.24149 93.5211 4.24149C92.8555 4.24149 92.213 4.03202 91.7151 3.65271C92.2298 3.29871 92.8612 3.09282 93.5198 3.06427ZM97.9364 5.62506C97.9364 5.62506 98.1598 4.83612 97.7257 4.25858C97.2917 3.68104 96.3627 3.53066 96.3627 3.53066C96.3627 3.53066 96.1393 4.3196 96.5734 4.89714C97.0074 5.47468 97.9364 5.62506 97.9364 5.62506ZM92.9183 4.89279C92.5355 5.12109 92.2593 5.45855 92.139 5.84518C92.3606 5.91097 92.596 5.93489 92.8293 5.9153C93.0626 5.8957 93.2882 5.83305 93.4907 5.73163C93.6932 5.63022 93.8677 5.49244 94.0025 5.32772C94.1372 5.163 94.2288 4.97524 94.2712 4.77728C93.8188 4.67678 93.3395 4.71692 92.9183 4.8906V4.89279ZM85.0014 4.47216C85.8797 4.77291 86.8696 4.42421 86.8696 4.42421C86.8696 4.42421 86.4305 3.58515 85.5522 3.28439C84.674 2.98363 83.6841 3.33234 83.6841 3.33234C83.6841 3.33234 84.1232 4.1714 85.0014 4.47216ZM80.5265 4.93637C80.577 4.48964 80.451 4.04132 80.1686 3.6636C79.9544 3.79342 79.7725 3.95861 79.6335 4.1495C79.4945 4.3404 79.4013 4.55317 79.3592 4.77538C79.3171 4.99759 79.3271 5.22477 79.3885 5.44363C79.4499 5.6625 79.5615 5.86865 79.7168 6.05004C80.1241 5.76792 80.4093 5.37648 80.5265 4.93855V4.93637ZM78.4959 4.47652C78.4959 4.47652 79.0518 3.78347 78.9045 3.05119C78.7573 2.31892 77.9679 1.82855 77.9679 1.82855C77.9679 1.82855 77.412 2.5216 77.5593 3.25388C77.7065 3.98615 78.4959 4.47652 78.4959 4.47652ZM78.1481 7.00462C78.3926 6.54883 78.4198 6.02901 78.224 5.55622C78.0281 5.08343 77.6247 4.69515 77.0998 4.47434C76.8553 4.93013 76.8281 5.44995 77.024 5.92274C77.2199 6.39553 77.6233 6.78381 78.1481 7.00462ZM80.8641 8.57596C80.883 8.36595 80.8511 8.15484 80.7703 7.95595C80.6895 7.75705 80.5616 7.57467 80.3947 7.4203C80.2278 7.26593 80.0255 7.14291 79.8005 7.05899C79.5754 6.97507 79.3326 6.93207 79.0873 6.9327C79.0684 7.14271 79.1003 7.35382 79.1811 7.55272C79.2618 7.75161 79.3897 7.93399 79.5566 8.08836C79.7235 8.24273 79.9259 8.36575 80.1509 8.44967C80.3759 8.53359 80.6187 8.57659 80.8641 8.57596ZM76.2419 5.65121C76.2608 5.4412 76.2289 5.23009 76.1481 5.0312C76.0673 4.8323 75.9395 4.64992 75.7726 4.49555C75.6056 4.34118 75.4033 4.21816 75.1783 4.13424C74.9533 4.05032 74.7104 4.00732 74.4651 4.00795C74.4462 4.21797 74.4781 4.42907 74.5589 4.62796C74.6397 4.82686 74.7676 5.00923 74.9345 5.16361C75.1014 5.31798 75.3037 5.441 75.5287 5.52492C75.7538 5.60884 75.9966 5.65184 76.2419 5.65121ZM75.5693 7.27268C76.3307 7.47972 77.1455 7.10705 77.1455 7.10705C77.1455 7.10705 76.7242 6.40092 75.9602 6.19606C75.1961 5.9912 74.3839 6.3617 74.3839 6.3617C74.3839 6.3617 74.8053 7.06782 75.5693 7.27268ZM78.6964 11.5661C78.8759 11.3693 79.0066 11.1431 79.0807 10.9014C79.1547 10.6597 79.1705 10.4076 79.127 10.1605C79.0835 9.91335 78.9817 9.67645 78.8278 9.46432C78.6738 9.25219 78.4711 9.06929 78.2319 8.92684C78.0521 9.12349 77.921 9.34965 77.8467 9.59141C77.7725 9.83317 77.7567 10.0854 77.8002 10.3326C77.8437 10.5798 77.9456 10.8168 78.0998 11.0289C78.2539 11.241 78.4569 11.4239 78.6964 11.5661ZM79.8538 12.4379C79.7923 12.8507 79.8875 13.2695 80.1254 13.6322C80.5168 13.38 80.7829 13.0102 80.8705 12.5969C80.958 12.1835 80.8605 11.757 80.5976 11.4026C80.2269 11.6704 79.9662 12.0333 79.8538 12.4379ZM80.6306 14.2467C80.4635 14.6619 80.4635 15.1131 80.6306 15.5282C80.8672 15.4454 81.0823 15.3231 81.2635 15.1684C81.4447 15.0137 81.5885 14.8298 81.6864 14.6271C81.7844 14.4245 81.8346 14.2072 81.8342 13.9878C81.8337 13.7684 81.7827 13.5512 81.6839 13.3488C81.2221 13.5396 80.8484 13.8582 80.6229 14.2533L80.6306 14.2467ZM90.1236 18.7189C90.0475 19.5035 90.7354 20.1943 90.7354 20.1943C90.7354 20.1943 91.5451 19.6102 91.6212 18.8235C91.6974 18.0367 91.0095 17.348 91.0095 17.348C91.0095 17.348 90.1998 17.9321 90.1211 18.7189H90.1236ZM96.4668 14.8265C96.4767 14.3442 96.2979 13.873 95.9591 13.4883C95.7433 13.6433 95.5654 13.8335 95.4357 14.0479C95.306 14.2623 95.227 14.4967 95.2034 14.7374C95.1798 14.9782 95.212 15.2206 95.2982 15.4506C95.3843 15.6806 95.5227 15.8936 95.7053 16.0774C96.1148 15.7452 96.3829 15.3048 96.4668 14.8265ZM96.0835 10.2672C95.6478 9.96353 95.1063 9.79396 94.5453 9.78553C94.5554 10.0268 94.6211 10.2641 94.7385 10.4835C94.856 10.7029 95.0229 10.9001 95.2296 11.0639C95.4364 11.2276 95.6788 11.3545 95.943 11.4374C96.2072 11.5202 96.4878 11.5573 96.7688 11.5465C96.7128 11.0664 96.4716 10.6161 96.0835 10.2672ZM93.9564 10.1669C93.9539 9.68508 93.7635 9.21784 93.4158 8.83967C93.2046 8.99931 93.0324 9.19329 92.9091 9.4104C92.7858 9.62752 92.7137 9.86346 92.6972 10.1046C92.6807 10.3458 92.72 10.5873 92.8128 10.8153C92.9057 11.0434 93.0502 11.2534 93.2381 11.4331C93.6353 11.0917 93.8881 10.646 93.9564 10.1669ZM100.591 10.4808C99.9559 10.4978 99.3475 10.7059 98.8725 11.0688C98.3975 11.4316 98.0859 11.9262 97.9922 12.4662C98.6278 12.4492 99.2361 12.241 99.7112 11.8782C100.186 11.5153 100.498 11.0207 100.591 10.4808ZM98.1674 13.6801C97.9136 14.1509 98.2029 14.7306 98.2029 14.7306C98.2029 14.7306 98.9086 14.5475 99.1649 14.0768C99.4213 13.606 99.1294 13.0263 99.1294 13.0263C99.1294 13.0263 98.4238 13.2094 98.1674 13.6801ZM103.201 8.47789C103.337 8.03786 103.31 7.57219 103.122 7.14628C102.662 7.38168 102.318 7.75301 102.154 8.19072C101.99 8.62842 102.017 9.10246 102.231 9.524C102.674 9.2717 103.013 8.90658 103.201 8.48007V8.47789ZM105.178 7.98971C105.488 7.69876 105.657 7.31797 105.653 6.92398C105.653 6.92398 104.833 6.88911 104.338 7.2814C104.029 7.57256 103.86 7.95339 103.866 8.34712C103.866 8.34712 104.686 8.382 105.178 7.98971ZM104.615 10.6202C104.543 11.0092 104.646 11.407 104.901 11.7339C104.901 11.7339 105.607 11.3743 105.767 10.812C105.838 10.4223 105.736 10.0239 105.48 9.69617C105.48 9.69617 104.774 10.0558 104.615 10.6181V10.6202ZM107.267 14.8875C107.267 14.8875 107.417 15.5784 107.978 15.9009C108.379 16.0918 108.85 16.1455 109.295 16.0513C109.295 16.0513 109.145 15.3582 108.584 15.0379C108.183 14.847 107.713 14.7932 107.267 14.8875ZM109.656 18.0345C110.374 18.113 111.016 17.5856 111.016 17.5856C111.016 17.5856 110.491 16.9318 109.772 16.8555C109.054 16.7792 108.412 17.3044 108.412 17.3044C108.412 17.3044 108.937 17.9583 109.656 18.0345ZM111.265 18.9608C110.908 18.7405 110.468 18.6432 110.031 18.6884C110.031 18.6884 110.087 19.3596 110.579 19.7192C110.936 19.9397 111.377 20.037 111.813 19.9916C111.813 19.9916 111.757 19.3204 111.265 18.9608ZM100.871 18.2481C100.331 18.0279 99.7251 17.9578 99.137 18.0476C98.5823 18.1878 98.0992 18.4851 97.7663 18.891C98.3058 19.1114 98.9119 19.1815 99.5 19.0915C100.055 18.9513 100.538 18.6541 100.871 18.2481ZM100.043 23.7555C100.998 23.8579 101.82 23.2934 101.82 23.2934C101.82 23.2934 101.104 22.5611 100.15 22.4587C99.1954 22.3563 98.373 22.9207 98.373 22.9207C98.373 22.9207 99.0888 23.653 100.043 23.7555ZM101.213 20.1856C101.727 20.0566 102.175 19.7815 102.482 19.4054C101.985 19.2024 101.426 19.1377 100.883 19.2201C100.37 19.3494 99.9223 19.6245 99.6142 20.0004C100.112 20.2036 100.671 20.2684 101.213 20.1856ZM102.883 21.43C103.391 21.4503 103.891 21.3186 104.297 21.0574C103.936 20.7311 103.461 20.5134 102.944 20.4362C102.437 20.4158 101.937 20.5476 101.531 20.8089C101.892 21.134 102.365 21.351 102.881 21.4279L102.883 21.43ZM108.61 22.3715C108.156 22.6269 107.824 23.0135 107.673 23.4612C107.673 23.4612 108.595 23.653 109.305 23.3087C109.76 23.0538 110.094 22.6671 110.244 22.219C110.244 22.219 109.323 22.0272 108.612 22.3715H108.61ZM104.932 24.0083C104.018 24.2371 103.526 25.0413 103.526 25.0413C103.526 25.0413 104.516 25.4772 105.429 25.244C106.343 25.0108 106.836 24.2109 106.836 24.2109C106.836 24.2109 105.846 23.7751 104.932 24.0083ZM108.404 25.451C108.943 25.288 109.4 24.971 109.699 24.5531C109.158 24.3512 108.556 24.3016 107.98 24.4115C107.442 24.5744 106.985 24.8915 106.686 25.3094C107.227 25.5113 107.828 25.5609 108.404 25.451ZM109.902 25.9545C109.434 25.9066 108.962 26.0107 108.579 26.2465C108.579 26.2465 109.044 26.8437 109.724 26.9613C110.191 27.0087 110.662 26.9045 111.044 26.6693C111.044 26.6693 110.579 26.0722 109.899 25.9545H109.902ZM109.275 28.0837C109.295 28.4603 109.468 28.8189 109.765 29.0972C110.103 29.3207 110.527 29.4265 110.953 29.3936C110.932 29.017 110.759 28.6584 110.463 28.3801C110.124 28.1568 109.7 28.051 109.275 28.0837ZM107.209 28.8988C106.899 29.4655 107.249 30.1411 107.249 30.1411C107.249 30.1411 108.102 29.8992 108.414 29.3325C108.727 28.7659 108.374 28.0903 108.374 28.0903C108.374 28.0903 107.521 28.3322 107.209 28.8988ZM99.6675 26.3119C99.6675 26.3119 98.6065 26.447 98.0329 27.0703C97.4592 27.6936 97.5887 28.5676 97.5887 28.5676C97.5887 28.5676 98.6497 28.4324 99.2233 27.8091C99.797 27.1858 99.665 26.3119 99.665 26.3119H99.6675ZM105.731 27.9726C105.35 28.1044 105.036 28.3496 104.848 28.6635C105.234 28.8139 105.667 28.8492 106.079 28.7637C106.461 28.6319 106.774 28.3867 106.962 28.0728C106.577 27.9224 106.143 27.8871 105.731 27.9726ZM95.3778 28.051C95.7995 28.0598 96.2123 27.947 96.5505 27.7307C96.8439 27.4817 97.024 27.1509 97.0582 26.7979C96.6365 26.7889 96.2236 26.9017 95.8855 27.1183C95.5915 27.3678 95.4114 27.6995 95.3778 28.0532V28.051ZM104.452 22.4347C104.152 22.1849 103.77 22.0192 103.358 21.9596C102.954 21.9372 102.552 22.0299 102.216 22.2233C102.516 22.4732 102.898 22.6389 103.31 22.6984C103.714 22.7209 104.116 22.6282 104.452 22.4347ZM101.442 14.2533C101.943 14.0987 102.374 13.8099 102.67 13.4295C102.903 13.0327 102.967 12.579 102.853 12.1458C102.351 12.3006 101.921 12.5893 101.624 12.9696C101.393 13.3666 101.329 13.8204 101.444 14.2533H101.442ZM103.848 16.7531C104.317 16.654 104.728 16.4115 105.003 16.0709C104.586 15.8375 104.09 15.7316 103.594 15.7701C103.125 15.8694 102.715 16.1119 102.439 16.4523C102.856 16.6858 103.352 16.7918 103.848 16.7531ZM100.886 15.0597C100.386 15.3801 100.023 15.8338 99.8553 16.3499C100.499 16.3874 101.141 16.2551 101.696 15.9707C102.195 15.65 102.556 15.1963 102.724 14.6804C102.08 14.6435 101.439 14.7758 100.886 15.0597ZM104.457 9.35618C104.457 9.35618 103.419 9.38016 102.746 9.91629C102.326 10.2911 102.071 10.7794 102.023 11.298C102.023 11.298 103.064 11.2741 103.734 10.7379C104.154 10.3632 104.41 9.87482 104.457 9.35618ZM75.0743 15.5348C75.0379 15.9729 75.1737 16.4088 75.4601 16.7727C75.6656 16.6408 75.8385 16.4752 75.9687 16.2854C76.0989 16.0956 76.1838 15.8855 76.2186 15.6672C76.2533 15.449 76.2371 15.227 76.171 15.0142C76.1048 14.8014 75.99 14.602 75.8332 14.4276C75.4417 14.7127 75.1735 15.1028 75.0718 15.5348H75.0743ZM69.4673 10.6399C69.5844 10.4438 69.6551 10.2298 69.675 10.0101C69.695 9.79044 69.664 9.56956 69.5837 9.36029C69.5034 9.15103 69.3754 8.95755 69.2073 8.7911C69.0392 8.62465 68.8342 8.48856 68.6043 8.39071C68.4871 8.58674 68.4165 8.8008 68.3965 9.02046C68.3765 9.24012 68.4076 9.461 68.4879 9.67026C68.5682 9.87953 68.6961 10.073 68.8643 10.2395C69.0324 10.4059 69.2374 10.542 69.4673 10.6399ZM66.4214 15.6786C66.4214 15.6786 66.4214 14.7633 65.7817 14.153C65.3199 13.7688 64.7208 13.5293 64.0811 13.4731C64.0811 13.4731 64.0811 14.3906 64.7207 14.9986C65.1826 15.3829 65.7816 15.6224 66.4214 15.6786ZM65.1979 16.1864C65.2879 16.5554 65.5183 16.8881 65.8528 17.1323C66.2186 17.3369 66.6543 17.4291 67.0889 17.3938C66.999 17.0248 66.7686 16.6921 66.4341 16.4479C66.0682 16.2435 65.6325 16.1513 65.1979 16.1864ZM65.8807 22.1623C65.5612 21.9037 65.1503 21.7441 64.7131 21.709C64.2774 21.7217 63.8596 21.8608 63.5278 22.1035C63.8475 22.3618 64.2583 22.5213 64.6954 22.5568C65.1311 22.5442 65.549 22.4052 65.8807 22.1623ZM72.0563 16.7814C71.6193 16.699 71.1624 16.7547 70.7694 16.9383C70.9788 17.2809 71.3235 17.5482 71.7416 17.6924C72.1794 17.775 72.6372 17.7192 73.031 17.5355C72.8208 17.1926 72.4752 16.9253 72.0563 16.7814ZM69.8734 15.6568C69.4246 15.6821 69.0009 15.8435 68.6779 16.1123C68.4125 16.422 68.2863 16.8035 68.3225 17.1868C68.7722 17.1618 69.1968 17.0003 69.5206 16.7313C69.786 16.4216 69.9121 16.04 69.8759 15.6568H69.8734ZM70.3024 19.68C69.9694 19.9361 69.755 20.2865 69.6983 20.6672C70.1404 20.7189 70.5896 20.6356 70.9674 20.4319C71.3004 20.1758 71.5148 19.8253 71.5715 19.4446C71.1294 19.3931 70.6803 19.4764 70.3024 19.68ZM79.4401 22.8423C79.4401 22.8423 79.3944 22.11 78.8487 21.7068C78.303 21.3036 77.4628 21.3756 77.4628 21.3756C77.4628 21.3756 77.506 22.1078 78.0542 22.5132C78.6025 22.9186 79.4401 22.8423 79.4401 22.8423ZM64.7715 19.218C64.7715 19.218 64.1674 18.4421 63.2485 18.2874C62.3297 18.1326 61.4464 18.6578 61.4464 18.6578C61.4464 18.6578 62.0505 19.4337 62.9693 19.5885C63.8882 19.7432 64.774 19.218 64.774 19.218H64.7715ZM76.5541 31.4226C76.5905 30.9373 76.4368 30.4555 76.1175 30.0539C75.7578 29.694 75.2682 29.4477 74.7266 29.3543C74.6907 29.8305 74.8378 30.3037 75.1454 30.7012C75.5051 31.0611 75.9948 31.3074 76.5363 31.4008L76.5541 31.4226ZM67.2641 29.9014C67.2046 30.3727 67.3306 30.8477 67.622 31.2504C68.0516 30.9466 68.353 30.5301 68.4799 30.0648C68.5392 29.5934 68.4132 29.1186 68.122 28.7158C67.6924 29.0195 67.3909 29.4361 67.2641 29.9014ZM65.4568 31.1654C65.3529 31.5537 65.4048 31.9607 65.6041 32.3205C66.0005 32.108 66.3032 31.7882 66.4645 31.4117C66.5687 31.0234 66.5168 30.6163 66.3173 30.2566C65.9209 30.4691 65.6182 30.7888 65.4568 31.1654ZM64.1623 29.7662C63.7188 29.8841 63.3344 30.1267 63.0709 30.4549C63.4833 30.6423 63.9565 30.7067 64.4162 30.638C64.8596 30.5199 65.244 30.2774 65.5076 29.9493C65.0953 29.7617 64.622 29.6973 64.1623 29.7662ZM62.8729 32.6212C63.3389 32.6053 63.7854 32.4565 64.142 32.1984C64.4565 31.9054 64.647 31.53 64.6827 31.1327C64.2167 31.1487 63.7701 31.2974 63.4135 31.5555C63.099 31.8485 62.9086 32.2239 62.8729 32.6212ZM74.2113 31.9391C74.3687 31.5968 74.3866 31.2189 74.2621 30.8668C74.0846 30.5334 73.779 30.2625 73.3965 30.0997C73.2391 30.4419 73.2212 30.8198 73.3458 31.1719C73.5234 31.5052 73.8289 31.7761 74.2113 31.9391ZM69.3404 32.157C69.24 32.515 69.2848 32.8917 69.4673 33.2249C69.6604 33.1437 69.8323 33.0297 69.9725 32.8897C70.1127 32.7497 70.2183 32.5867 70.2829 32.4106C70.3475 32.2345 70.3697 32.0489 70.3481 31.8652C70.3266 31.6815 70.2618 31.5035 70.1577 31.3419C69.7864 31.5265 69.4991 31.8139 69.3429 32.157H69.3404ZM66.5914 22.6658C66.0468 22.7093 65.5331 22.9027 65.1269 23.2171C64.7667 23.5671 64.55 24.0089 64.5101 24.4747C65.0547 24.4312 65.5684 24.2378 65.9746 23.9233C66.3348 23.5733 66.5515 23.1316 66.5914 22.6658ZM66.4721 18.15C65.9839 17.8768 65.4026 17.7532 64.8223 17.7992C64.9419 18.2914 65.2491 18.7354 65.6954 19.061C66.1837 19.3341 66.765 19.4577 67.3453 19.4119C67.2253 18.9198 66.9181 18.4759 66.4721 18.15ZM68.2845 21.4191C68.2845 21.4191 67.7311 20.4951 66.7082 20.1747C65.6853 19.8543 64.5837 20.2641 64.5837 20.2641C64.5837 20.2641 65.1396 21.1903 66.1599 21.5085C67.1803 21.8267 68.2845 21.4191 68.2845 21.4191ZM81.1306 15.9859C80.562 16.6397 80.6839 17.5333 80.6839 17.5333C80.6839 17.5333 81.7271 17.3894 82.2957 16.7443C82.8642 16.0992 82.7424 15.197 82.7424 15.197C82.7424 15.197 81.6992 15.3408 81.1306 15.9859ZM89.5576 19.3291C89.1034 18.8377 88.4825 18.4798 87.7808 18.3048C87.7129 18.9357 87.9128 19.5664 88.3438 20.0807C88.7748 20.5949 89.4079 20.9581 90.1262 21.1031C90.1585 20.4751 89.9615 19.8541 89.5627 19.3269L89.5576 19.3291ZM77.7268 14.8199C77.7268 14.8199 76.8866 15.3713 76.7445 16.1712C76.6023 16.971 77.209 17.7142 77.209 17.7142C77.209 17.7142 78.0466 17.1628 78.1913 16.3629C78.336 15.5631 77.7268 14.8199 77.7268 14.8199ZM86.9635 5.05841C86.5701 5.40822 86.3267 5.86235 86.2731 6.34644C86.5557 6.36388 86.8394 6.33215 87.1074 6.25315C87.3753 6.17414 87.6219 6.0495 87.8324 5.88669C88.0429 5.72388 88.2129 5.52625 88.3323 5.30566C88.4516 5.08506 88.5179 4.84604 88.5271 4.60292C87.9597 4.60117 87.4084 4.76484 86.9635 5.06713V5.05841ZM87.5067 7.90035C87.7953 7.48586 87.91 6.99901 87.8316 6.52079C87.5529 6.55689 87.2857 6.64144 87.0464 6.76928C86.8071 6.89712 86.6006 7.06557 86.4398 7.26429C86.2789 7.46301 86.167 7.68783 86.1108 7.92498C86.0547 8.16214 86.0555 8.40665 86.1132 8.64352C86.6627 8.53936 87.1544 8.27716 87.5067 7.90035ZM89.6363 8.19674C89.6356 7.71287 89.4421 7.24377 89.088 6.86732C88.8701 7.02112 88.691 7.21157 88.562 7.42697C88.4329 7.64237 88.3565 7.87817 88.3375 8.11987C88.3184 8.36156 88.3572 8.60403 88.4514 8.83239C88.5455 9.06074 88.6931 9.27014 88.885 9.44772C89.2987 9.11739 89.5676 8.67493 89.6465 8.19457L89.6363 8.19674ZM84.6791 12.7844C84.4389 13.1642 84.3843 13.6103 84.527 14.0247C84.6698 14.4391 84.9984 14.7878 85.4405 14.9943C85.6807 14.6145 85.7354 14.1684 85.5926 13.754C85.4498 13.3396 85.1212 12.9908 84.6791 12.7844ZM86.5015 10.5418C87.088 10.3623 87.5953 10.0311 87.9534 9.59374C87.3724 9.40245 86.7366 9.37048 86.1335 9.50221C85.7304 9.61643 85.3643 9.81055 85.0649 10.0689C85.244 9.77272 85.3527 9.44898 85.3847 9.11645C85.4055 8.5921 85.2542 8.07328 84.9481 7.6192C84.5732 8.03308 84.3418 8.52937 84.2806 9.05107C84.2617 9.33965 84.3021 9.62882 84.3999 9.9054C84.1831 9.72229 83.9294 9.57459 83.6511 9.46952C83.0679 9.28138 82.4312 9.2532 81.8286 9.38887C82.1263 9.86088 82.5875 10.2417 83.1485 10.4786C83.4609 10.5888 83.7956 10.6451 84.1334 10.6442C83.8466 10.7996 83.6094 11.0138 83.4429 11.2675C83.2142 11.7073 83.1677 12.201 83.311 12.6667C83.8361 12.5069 84.2833 12.1998 84.5801 11.7949C84.6578 11.6659 84.7133 11.5279 84.7451 11.3852C84.8107 11.5858 84.9278 11.7712 85.0877 11.9279C85.6411 12.4488 86.6437 12.44 86.6437 12.44C86.6437 12.44 86.7503 11.5835 86.197 11.0627C85.8588 10.782 85.419 10.609 84.9507 10.5723V10.557C85.4522 10.6828 85.9845 10.6873 86.4889 10.5701L86.5015 10.5418ZM73.8331 29.2039C73.4065 28.9317 72.8923 28.7795 72.3609 28.7681C72.1471 28.7735 71.9356 28.8073 71.7339 28.8683C71.9112 28.6958 72.0505 28.4972 72.1451 28.2821C72.3128 27.8065 72.3004 27.2975 72.1096 26.8284C71.6157 27.0819 71.2282 27.4635 71.0029 27.9181C70.8984 28.1829 70.8604 28.4636 70.8912 28.7419C70.7626 28.5474 70.5816 28.3823 70.3633 28.2603C69.7363 27.9268 68.8936 28.1142 68.8936 28.1142C68.8936 28.1142 69.0688 28.8443 69.6957 29.18C69.8656 29.267 70.0535 29.3247 70.2491 29.35C70.0342 29.4132 69.8389 29.5175 69.678 29.6551C69.1855 30.091 69.2363 30.8189 69.2363 30.8189C69.2363 30.8189 70.0866 30.832 70.579 30.383C70.6911 30.2803 70.7813 30.1615 70.8456 30.0321C70.8542 30.2065 70.9034 30.3777 70.9902 30.5356C71.3202 31.1087 72.1655 31.3289 72.1655 31.3289C72.1655 31.3289 72.4726 30.6206 72.1401 30.0474C72.0259 29.8614 71.8635 29.7003 71.6654 29.5766C71.8952 29.6468 72.1374 29.6822 72.3812 29.6812C72.9109 29.6544 73.418 29.4877 73.8331 29.2039ZM75.917 19.1787C75.917 19.1787 74.9601 19.1526 74.3712 19.6451C74.2002 19.7931 74.0663 19.9696 73.9778 20.1638C73.9472 19.9426 73.8605 19.7299 73.7239 19.5405C73.2823 18.9346 72.3178 18.7668 72.3178 18.7668C72.3178 18.7668 72.0639 19.5819 72.5157 20.19C72.6372 20.3511 72.7941 20.4902 72.9777 20.5997C72.7214 20.5713 72.4609 20.5937 72.2162 20.6651C71.4547 20.9004 71.0943 21.6567 71.0943 21.6567C71.0943 21.6567 71.9472 22.0316 72.701 21.7962C72.8745 21.7399 73.0351 21.6581 73.1757 21.5543C73.0844 21.7346 73.0361 21.9287 73.0335 22.1253C73.0335 22.8466 73.7646 23.4329 73.7646 23.4329C73.7646 23.4329 74.4854 22.8466 74.4829 22.1253C74.476 21.8881 74.4056 21.6554 74.2773 21.4453C74.4693 21.6148 74.6944 21.7542 74.9423 21.8572C75.4977 22.054 76.1104 22.0981 76.6963 21.9836C76.4236 21.5237 75.9918 21.1476 75.4601 20.907C75.2735 20.8338 75.0763 20.7824 74.8738 20.7544C75.0341 20.6899 75.1815 20.6038 75.3104 20.4994C75.9018 20.0091 75.9043 19.1918 75.9043 19.1918L75.917 19.1787ZM98.4948 21.1663C98.4948 21.1663 97.5455 21.0443 96.9186 21.4736C96.7746 21.5742 96.6526 21.696 96.5581 21.8332C96.5782 21.6368 96.5523 21.439 96.482 21.2513C96.2129 20.5692 95.3068 20.2139 95.3068 20.2139C95.3068 20.2139 94.8397 20.968 95.1113 21.6502C95.2059 21.873 95.3587 22.0744 95.5581 22.2386C95.3141 22.1276 95.0496 22.0539 94.7763 22.0207C94.1764 21.9858 93.5788 22.1115 93.0655 22.3803C93.4944 22.7418 94.0434 22.9801 94.6367 23.0624C94.8567 23.0823 95.079 23.075 95.2966 23.0406C95.1744 23.1639 95.0821 23.3069 95.025 23.4612C94.827 24.0344 95.2458 24.649 95.2458 24.649C95.2458 24.649 95.987 24.3352 96.185 23.762C96.2132 23.6775 96.2294 23.5904 96.2332 23.5026C96.3268 23.6353 96.4451 23.7539 96.5835 23.8535C97.2282 24.3068 98.2029 24.2044 98.2029 24.2044C98.2029 24.2044 98.1344 23.3632 97.4897 22.9098C97.3495 22.8162 97.1927 22.7426 97.0252 22.6919C97.3074 22.6527 97.574 22.5546 97.8019 22.4064C98.4288 21.9705 98.4974 21.1598 98.4974 21.1598L98.4948 21.1663ZM105.437 12.3572C105.376 12.4839 105.337 12.6175 105.32 12.7539C105.209 12.5944 105.055 12.46 104.871 12.3616C104.264 12.0543 103.434 12.2962 103.434 12.2962C103.434 12.2962 103.584 13.0394 104.196 13.3467C104.379 13.4351 104.584 13.4858 104.795 13.4949C104.537 13.537 104.294 13.6295 104.084 13.7651C103.455 14.201 103.384 15.0095 103.384 15.0095C103.384 15.0095 104.333 15.1338 104.96 14.7044C105.093 14.6108 105.207 14.4989 105.297 14.3732C105.265 14.5418 105.271 14.7143 105.315 14.881C105.49 15.4825 106.224 15.8421 106.224 15.8421C106.224 15.8421 106.671 15.2275 106.495 14.626C106.424 14.4056 106.29 14.2036 106.107 14.0375C106.354 14.1217 106.618 14.1624 106.884 14.1574C107.433 14.1106 107.949 13.9091 108.351 13.5842C107.919 13.2851 107.383 13.1179 106.828 13.1091C106.693 13.1151 106.559 13.1341 106.429 13.1658C106.533 13.0615 106.619 12.9447 106.683 12.8192C107.011 12.1654 106.648 11.4135 106.648 11.4135C106.648 11.4135 105.754 11.7056 105.429 12.355L105.437 12.3572ZM87.8291 2.4475C87.9018 2.46006 87.9757 2.46734 88.0499 2.46929C87.979 2.53589 87.9169 2.60898 87.8646 2.68723C87.645 3.08075 87.5911 3.5275 87.7123 3.95128C88.1991 3.82275 88.6195 3.55415 88.9027 3.19068C89.0077 3.02686 89.0741 2.84691 89.0982 2.66108C89.1723 2.81688 89.2819 2.9584 89.4205 3.07734C89.9282 3.51322 90.7811 3.46746 90.7811 3.46746C90.7811 3.46746 90.7811 2.74172 90.2734 2.31456C90.1269 2.19735 89.9542 2.10689 89.7658 2.04867C89.9044 2.04147 90.0412 2.01726 90.1719 1.97675C90.5825 1.81456 90.9164 1.53704 91.1186 1.18999C90.6995 1.04609 90.2357 1.02918 89.8038 1.14204C89.6695 1.18774 89.5438 1.25016 89.4307 1.32729C89.4501 1.25065 89.4603 1.17251 89.4612 1.09409C89.4235 0.683295 89.2175 0.297237 88.8799 0.00439453C88.5404 0.296588 88.3326 0.682721 88.2936 1.09409C88.2951 1.24317 88.3278 1.3908 88.39 1.52997C88.2926 1.48739 88.1894 1.45519 88.0829 1.43408C87.3899 1.30549 86.6995 1.71087 86.6995 1.71087C86.6995 1.71087 87.1336 2.32327 87.8291 2.44968V2.4475ZM104.368 27.5258C103.839 27.3812 103.271 27.3812 102.741 27.5258C102.477 27.6153 102.235 27.7469 102.028 27.9137C102.006 27.8107 101.97 27.7104 101.919 27.6152C101.589 27.0267 100.751 26.7848 100.751 26.7848C100.751 26.7848 100.447 27.4975 100.777 28.0925C100.814 28.1574 100.858 28.2194 100.909 28.2777C100.823 28.2834 100.738 28.2959 100.655 28.3148C99.9112 28.4891 99.4797 29.1756 99.4797 29.1756C99.4797 29.1756 100.254 29.581 101.003 29.4066C101.049 29.3935 101.095 29.3782 101.14 29.3609C101.116 29.4386 101.101 29.5182 101.097 29.5984C101.061 30.2348 101.678 30.7753 101.678 30.7753C101.678 30.7753 102.356 30.2849 102.394 29.6485C102.396 29.6115 102.396 29.5744 102.394 29.5374C102.422 29.5548 102.444 29.5744 102.475 29.5897C103.14 29.9406 104.031 29.7357 104.031 29.7357C104.031 29.7357 103.845 28.9642 103.18 28.6133C103.095 28.5683 103.004 28.531 102.909 28.5022C102.995 28.4858 103.08 28.4647 103.163 28.439C103.672 28.2493 104.1 27.9287 104.389 27.5215L104.368 27.5258ZM67.7413 14.5584C67.7692 14.5584 67.792 14.5432 67.82 14.5366C67.8084 14.5804 67.8007 14.6248 67.7971 14.6696C67.8134 15.0249 67.9805 15.3628 68.2667 15.6198C68.5806 15.3867 68.7853 15.0638 68.8429 14.711C68.8458 14.6379 68.839 14.5648 68.8226 14.493C68.8836 14.5332 68.9491 14.5683 69.018 14.5976C69.4254 14.733 69.8761 14.7376 70.2872 14.6107C70.1524 14.2565 69.8729 13.9562 69.5003 13.7651C69.3862 13.7197 69.2646 13.6895 69.1399 13.6757C69.2072 13.6334 69.2693 13.5852 69.3251 13.5319C69.5663 13.2608 69.6925 12.9271 69.683 12.5861C69.2876 12.6248 68.9194 12.7787 68.6398 13.0219C68.5658 13.0963 68.5043 13.1792 68.4571 13.2682C68.4408 13.1588 68.4048 13.0522 68.3505 12.9522C68.1384 12.6393 67.8037 12.4014 67.4062 12.2809C67.2679 12.6221 67.2751 12.9944 67.4265 13.3314C67.4989 13.4565 67.5979 13.5688 67.7184 13.6627C67.6519 13.6642 67.5856 13.6708 67.5204 13.6823C67.1108 13.7917 66.7604 14.0237 66.5331 14.3361C66.8906 14.539 67.3215 14.6242 67.7464 14.5758L67.7413 14.5584ZM90.0348 6.96757C90.4116 6.48127 90.5567 5.88932 90.44 5.31387C90.3234 4.73842 89.9539 4.22338 89.4079 3.875C89.0316 4.36147 88.887 4.95327 89.0036 5.52856C89.1202 6.10385 89.4893 6.61886 90.0348 6.96757ZM94.3143 6.06966C94.497 6.19573 94.7093 6.28642 94.9366 6.33552C95.1639 6.38461 95.4009 6.39096 95.6313 6.35412C95.8618 6.31728 96.0802 6.23813 96.2717 6.12207C96.4632 6.00602 96.6233 5.85581 96.7409 5.68173C96.5582 5.55565 96.3459 5.46496 96.1186 5.41587C95.8913 5.36677 95.6543 5.36042 95.4239 5.39726C95.1934 5.4341 94.975 5.51326 94.7835 5.62931C94.592 5.74536 94.4319 5.89557 94.3143 6.06966ZM92.5375 6.6472C92.1036 6.89344 91.7818 7.26058 91.6263 7.68677C92.1197 7.80565 92.6463 7.76933 93.1112 7.58433C93.5451 7.33809 93.8669 6.97095 94.0224 6.54476C93.529 6.42588 93.0025 6.4622 92.5375 6.6472ZM93.86 2.17943C94.888 1.58664 95.2256 0.470789 95.2256 0.470789C95.2256 0.470789 93.8955 0.316051 92.865 0.906668C91.8344 1.49728 91.4994 2.61531 91.4994 2.61531C91.4994 2.61531 92.8294 2.77005 93.86 2.17943ZM68.7566 17.9038C68.6156 18.1841 68.5852 18.4964 68.6703 18.793C68.9979 18.6664 69.27 18.4534 69.447 18.1849C69.5878 17.9045 69.6181 17.5923 69.5333 17.2957C69.2049 17.4221 68.9319 17.6351 68.754 17.9038H68.7566ZM64.1014 22.9796C63.693 22.9395 63.2802 23.0103 62.9211 23.1823C62.5893 23.3831 62.3418 23.6705 62.2155 24.0017C62.6239 24.0419 63.0367 23.971 63.3958 23.799C63.7276 23.5982 63.975 23.3108 64.1014 22.9796ZM95.5276 12.5185C95.6291 12.4161 95.5276 12.3638 95.4235 12.3725C95.3195 12.3812 94.8169 12.403 94.8169 12.403C94.8169 12.403 94.8169 12.0216 94.8169 11.7862C94.8169 11.5508 94.6621 11.638 94.5859 11.7274C94.4369 11.889 94.2665 12.0353 94.0783 12.1632C93.8116 12.1077 93.5302 12.1432 93.2934 12.2623C93.0566 12.3814 92.883 12.5749 92.8091 12.8018C92.6974 13.0808 92.6238 13.3162 92.4335 13.3379C92.2431 13.3597 92.1339 13.0437 92.0908 12.5446C92.0476 12.0456 91.7227 11.553 91.3725 11.4419C91.0222 11.3307 89.6439 11.0736 89.3876 11.2065C89.1312 11.3394 89.3013 11.9497 89.9257 12.2962C89.2581 12.4575 89.6871 13.0742 90.38 13.2747C89.9003 13.4927 90.4054 13.9286 90.8674 14.068C90.5359 14.3461 90.2681 14.675 90.078 15.0379C88.0473 14.796 87.7783 15.2732 87.7504 15.3975C87.7072 15.5805 87.9306 15.7941 88.1692 15.8748C87.9154 16.0927 87.5448 16.4697 87.7326 16.7204C87.9204 16.971 88.4941 16.7945 88.7479 16.6463C88.7016 16.7689 88.707 16.9015 88.7632 17.0211C88.8193 17.1406 88.9226 17.2394 89.055 17.3001C89.7124 17.5442 90.4841 16.5286 90.5018 15.9924C90.6643 16.036 91.5552 16.1537 91.8192 16.023C91.4943 16.7661 91.9563 17.0451 92.1695 16.9187C92.1086 18.0084 92.7254 17.8449 92.9132 17.6902C92.9132 17.8885 92.9386 18.6905 93.4005 18.6753C93.8625 18.66 94.3854 17.6531 94.5555 16.7138C94.7255 15.7745 94.6062 15.2079 94.0859 14.7872C94.4026 14.5569 94.6565 14.2696 94.8298 13.9458C95.003 13.6219 95.0913 13.2693 95.0885 12.913C95.0885 12.913 95.4388 12.6405 95.5428 12.5381L95.5276 12.5185ZM71.8558 9.9359C72.0106 10.788 72.267 11.3242 72.7899 11.7666C72.1477 12.0891 72.2086 12.7735 72.4218 13.8675C72.635 14.9616 73.262 15.6111 73.6123 15.55C73.9625 15.489 74.0412 15.064 73.9625 14.6172C74.7063 15.2209 74.8433 14.3012 74.6733 13.8239C75.4347 13.898 75.1098 13.1919 74.9804 12.9348C75.0667 12.9783 76.1023 13.0459 76.351 12.95C76.813 14.3165 77.5923 14.4276 77.841 14.2359C78.0897 14.0441 78.0111 13.8392 77.9425 13.545C78.2674 13.5973 78.5771 13.5167 78.671 13.327C78.7649 13.1374 78.6279 12.9958 78.4172 12.8563C78.5904 12.8534 78.7619 12.8262 78.9248 12.7757C79.0518 12.7386 79.3614 12.5577 79.0695 12.1959C78.7776 11.8342 77.0668 11.8429 76.7166 11.8494C76.4963 11.5698 76.2564 11.302 75.9982 11.0474C76.1354 11.0346 76.2677 10.9964 76.386 10.9354C76.5043 10.8745 76.6058 10.7922 76.6836 10.6943C76.7047 10.6036 76.6868 10.5094 76.6331 10.4292C76.5794 10.3491 76.4936 10.2884 76.3917 10.2585C76.6988 10.1713 77.1531 9.84655 77.1531 9.60464C77.1531 9.36273 76.879 9.24504 76.7419 9.19273C76.879 9.13389 77.6912 8.69365 77.341 8.28828C76.9907 7.88291 75.2621 8.53019 75.0134 8.72416C74.7646 8.91813 74.7393 9.30606 74.7393 9.6199C74.7393 9.93373 74.6631 10.2149 74.3966 10.2585C74.1301 10.302 74.0971 10.1037 73.9955 9.8095C74.2494 9.78117 74.2265 9.55233 74.1326 9.55233C74.0387 9.55233 73.9194 9.50002 73.6605 9.33439C73.5064 9.2311 73.3248 9.16229 73.1321 9.13414C72.9394 9.10599 72.7415 9.11938 72.5563 9.17312C72.4555 8.98462 72.3437 8.80059 72.2213 8.62173C72.0919 8.45392 71.9827 8.62173 71.9827 8.74596C71.9827 8.87018 72.0259 9.36272 72.0259 9.36272L71.3659 9.28209C71.1857 9.26029 71.1958 9.36926 71.2898 9.45862C71.3837 9.54797 71.8634 9.95116 71.8634 9.95116L71.8558 9.9359ZM82.8312 21.2971C82.8312 21.454 82.8312 21.6785 83.3211 21.6502C83.7198 21.5925 84.0904 21.4368 84.3882 21.202C84.6859 20.9673 84.8981 20.6634 84.9989 20.3273C85.3086 19.425 84.9431 18.3091 84.108 17.8275C83.2729 17.3458 81.9581 17.5878 81.4606 18.0127C80.9123 18.4835 80.5138 19.3945 81.0037 20.0614C81.1695 20.3021 81.4126 20.4967 81.7038 20.6219C81.995 20.7471 82.3221 20.7977 82.6459 20.7675C82.9714 20.7252 83.2702 20.5883 83.4924 20.3796C83.7146 20.171 83.8468 19.9033 83.8668 19.6211C83.8783 19.5753 83.8842 19.5286 83.8846 19.4817C83.8852 19.3602 83.8492 19.2407 83.7803 19.1347C83.7114 19.0286 83.6117 18.9397 83.4911 18.8763C83.3704 18.813 83.2327 18.7775 83.0914 18.7732C82.95 18.7689 82.8097 18.7959 82.6841 18.8518C82.5585 18.9076 82.4518 18.9903 82.3743 19.0919C82.2968 19.1934 82.2511 19.3105 82.2417 19.4316C82.2322 19.5528 82.2593 19.674 82.3203 19.7836C82.3814 19.8931 82.4743 19.9873 82.5901 20.057C82.4228 20.1184 82.2343 20.1214 82.0646 20.0652C81.8948 20.009 81.7574 19.8982 81.6814 19.7563C81.4276 19.364 81.3057 18.3745 82.6967 18.0999C84.0877 17.8253 84.5217 19.1787 84.5344 19.6255C84.5471 20.0723 84.4329 21.1642 82.8211 21.2927L82.8312 21.2971ZM83.3795 8.56289C83.3767 8.46414 83.3407 8.36818 83.2759 8.28659C83.211 8.205 83.1201 8.14125 83.014 8.10303C82.7855 7.99624 81.9987 7.74125 81.6788 7.15282C81.359 6.56438 81.2905 5.82992 81.9174 5.33084C82.5444 4.83176 83.6638 5.03662 83.9938 5.29161C84.1549 5.40087 84.2754 5.5482 84.3403 5.71547C84.4053 5.88275 84.4118 6.06267 84.3592 6.23311C84.2866 6.39411 84.147 6.52625 83.9674 6.60395C83.7878 6.68165 83.581 6.69939 83.3871 6.65373C83.4845 6.58691 83.5606 6.49994 83.6081 6.40097C83.6557 6.302 83.6732 6.19428 83.659 6.08791C83.6448 5.98155 83.5993 5.88003 83.5269 5.79288C83.4545 5.70572 83.3575 5.63578 83.245 5.58964C83.1325 5.54349 83.0081 5.52264 82.8837 5.52904C82.7592 5.53544 82.6387 5.56888 82.5334 5.62623C82.4281 5.68358 82.3415 5.76295 82.2817 5.85691C82.2219 5.95086 82.1909 6.05631 82.1916 6.16337C82.1915 6.30964 82.2257 6.45444 82.2921 6.58912C82.3586 6.7238 82.456 6.84561 82.5784 6.9473C82.7009 7.04899 82.8459 7.12847 83.0049 7.181C83.1639 7.23353 83.3336 7.25804 83.5039 7.25307C84.4862 7.25307 85.0268 6.65592 85.0268 5.88005C85.0268 5.10419 84.1943 4.4896 82.9962 4.4896C81.7981 4.4896 80.7828 5.41148 80.8057 6.32247C80.8285 7.23346 81.5139 8.39943 83.3744 8.55635L83.3795 8.56289ZM108.249 27.1379C108.036 26.9919 104.785 25.5578 100.929 25.2135L101.117 25.1481C104.597 23.8797 106.323 22.2582 106.853 21.5979C107.952 21.8485 108.884 21.4693 109.265 20.9833C109.645 20.4973 109.813 19.1809 108.98 18.4835C108.513 18.1162 107.923 17.8845 107.294 17.8211C106.665 17.7578 106.029 17.866 105.475 18.1304C104.206 18.6993 104.424 20.4341 104.78 20.7457C105.135 21.0574 105.338 21.0116 105.452 20.9528C105.325 20.8547 104.894 20.5408 104.995 19.7366C105.054 19.3218 105.299 18.9431 105.679 18.6812C106.058 18.4194 106.541 18.2953 107.026 18.3353C108.145 18.3832 108.932 18.9717 108.955 19.9524C108.971 20.1223 108.945 20.2932 108.879 20.4539C108.813 20.6146 108.708 20.7615 108.571 20.885C108.435 21.0084 108.269 21.1057 108.085 21.1703C107.902 21.2349 107.704 21.2655 107.506 21.26C106.947 21.2404 106.33 21.0726 106.353 20.4667C106.345 20.3675 106.376 20.2688 106.44 20.186C106.505 20.1033 106.599 20.041 106.709 20.0091C106.733 20.1193 106.792 20.2218 106.879 20.3054C106.966 20.389 107.078 20.4506 107.203 20.4835C107.328 20.5165 107.461 20.5196 107.588 20.4924C107.715 20.4653 107.831 20.4089 107.923 20.3294C108.015 20.25 108.081 20.1504 108.112 20.0414C108.143 19.9324 108.139 19.8182 108.1 19.7111C108.062 19.6039 107.99 19.5078 107.892 19.4332C107.794 19.3586 107.675 19.3083 107.546 19.2877C107.302 19.2273 107.043 19.2216 106.795 19.2712C106.547 19.3208 106.318 19.424 106.13 19.571C105.966 19.705 105.844 19.8718 105.774 20.0563C105.704 20.2409 105.688 20.4375 105.728 20.6285C105.768 20.8196 105.862 20.9992 106.003 21.1512C106.144 21.3033 106.326 21.423 106.533 21.4998C105.249 22.7486 102.444 24.4071 99.8249 24.8822C97.9037 25.2415 95.9174 25.2615 93.9869 24.941C93.8321 24.5444 93.1645 23.956 92.0705 24.0148C91.7297 24.0161 91.3996 24.1166 91.134 24.2999C90.8684 24.4832 90.6832 24.7384 90.6085 25.0239C90.5513 25.1318 90.5294 25.2511 90.5451 25.3689C90.5608 25.4867 90.6135 25.5986 90.6976 25.6927C90.7817 25.7867 90.894 25.8594 91.0225 25.9028C91.151 25.9463 91.2908 25.9589 91.4271 25.9394C91.5633 25.9199 91.6907 25.8689 91.7958 25.7919C91.9009 25.715 91.9796 25.615 92.0235 25.5025C92.0675 25.3901 92.075 25.2696 92.0452 25.1538C92.0155 25.038 91.9497 24.9313 91.8547 24.8452C92.5274 24.7318 93.0452 25.2636 93.0452 25.9109C93.0359 26.1752 92.925 26.4294 92.7299 26.634C92.5348 26.8386 92.2664 26.982 91.9664 27.042C91.6593 27.0856 90.6973 27.2926 90.05 26.3511C89.4028 25.4096 90.2734 24.3897 90.5805 23.969C90.8877 23.5484 92.0705 22.4979 92.6518 21.9117C93.0376 21.5216 93.9209 20.6389 94.7661 19.8827C94.9961 19.7278 95.2647 19.6206 95.5509 19.5695C95.8371 19.5185 96.1332 19.525 96.416 19.5885C97.2384 19.765 98.0836 20.1573 99.1776 20.9222C100.272 21.6872 101.437 22.3519 101.894 21.9814C101.597 21.8441 100.728 21.5303 100.117 21.0007C99.5406 20.506 97.6851 18.878 96.119 18.7668C96.798 18.2733 97.4358 17.7395 98.0278 17.1693C101.749 18.1762 105.417 17.4025 106.643 16.9034C106.551 16.7857 106.323 16.7661 105.881 16.8642C102.488 17.6314 99.868 17.1061 98.543 16.6463C98.8273 16.3586 99.1345 16.0339 99.4746 15.659C101.17 13.7913 101.427 10.9101 101.391 10.6616C101.355 10.4132 101.305 10.3086 101.117 10.2803C101.117 10.8382 101.15 12.78 98.736 15.4541C98.3755 15.853 98.0684 16.169 97.7892 16.4349C97.147 14.5497 97.5354 11.444 97.7232 10.3565C98.145 10.4074 98.5736 10.3993 98.9923 10.3326C100.817 10.058 101.457 8.45173 101.355 7.5778C101.254 6.70386 100.812 5.46161 99.0507 5.28507C98.5608 5.23495 98.4796 5.47032 98.4694 5.54878C98.708 5.54878 99.7944 5.59673 100.353 6.24401C100.911 6.89129 101.003 8.17495 100.399 8.84185C99.7944 9.50875 98.4365 10.0187 97.51 9.71361C96.5835 9.40849 95.916 8.65224 96.152 7.7151C96.3881 6.77796 97.3044 6.6254 97.7283 6.67553C98.1522 6.72566 98.9263 6.96975 98.9847 7.54729C99.0107 7.66811 98.9921 7.79287 98.9316 7.9042C98.8711 8.01553 98.7716 8.10789 98.6471 8.16842C98.6551 8.13322 98.6593 8.09747 98.6598 8.06162C98.6603 7.94491 98.6231 7.83037 98.5524 7.73069C98.4817 7.63101 98.3802 7.55009 98.2592 7.49689C98.1383 7.44369 98.0025 7.42029 97.8669 7.42929C97.7314 7.43829 97.6014 7.47934 97.4914 7.54789C97.3814 7.61643 97.2956 7.70979 97.2436 7.81762C97.1916 7.92546 97.1754 8.04355 97.1968 8.15881C97.2182 8.27407 97.2763 8.38199 97.3647 8.47062C97.4532 8.55926 97.5684 8.62514 97.6978 8.66096H97.7308C97.7942 8.67745 97.86 8.68626 97.9263 8.68711H97.9922C98.2297 8.70082 98.4679 8.67271 98.6923 8.6045C98.9167 8.53629 99.1224 8.42943 99.2969 8.29046C99.7868 7.85458 99.6243 7.11141 99.4797 6.86949C99.1954 6.39003 98.637 5.99774 97.5049 6.09581C96.2358 6.2135 95.0859 7.34024 95.4743 8.59558C95.5839 8.99679 95.8184 9.36488 96.1528 9.66047C96.4873 9.95607 96.909 10.168 97.3729 10.2737C96.746 13.0633 97.048 15.8137 97.2105 16.9579C96.0479 17.8994 95.4337 17.8754 93.6924 19.3226C91.3293 21.284 90.7125 22.7181 88.984 22.6156C87.2554 22.5132 86.862 18.4268 86.6995 16.5133C86.6791 16.213 86.6901 15.9118 86.7325 15.6132C86.9864 14.9376 87.6742 14.0724 88.8901 13.9983C88.8901 13.837 88.753 13.6888 88.3824 13.7477C87.8992 13.8628 87.4431 14.0494 87.0346 14.2991C87.3524 13.3789 87.7927 12.4933 88.3469 11.6598C88.7327 11.1062 89.4815 10.4328 90.1236 9.524C90.908 9.08812 92.969 8.41469 94.4565 8.21636C94.4117 8.13168 94.335 8.0624 94.2387 8.0197C94.1425 7.977 94.0323 7.96336 93.926 7.98099C92.7773 8.15755 91.6523 8.43281 90.5678 8.80262C91.0076 7.92536 91.3353 7.00975 91.5451 6.07183C91.5958 5.63595 91.5273 5.52699 91.3065 5.46814C91.2735 6.12196 90.6567 7.64754 90.1414 8.58468C89.6261 9.52182 88.5322 10.2606 87.5727 11.7601C86.7261 13.1729 86.0989 14.675 85.7071 16.2278C84.6106 15.8595 83.344 13.861 83.1054 13.3946C82.8668 12.9282 82.1992 11.2937 80.9478 9.99911C80.0848 9.10935 79.0759 8.33192 77.9527 7.69113C77.8556 7.65419 77.7505 7.63511 77.6443 7.63511C77.5381 7.63511 77.433 7.65419 77.3359 7.69113C78.638 8.27957 80.0747 9.74847 80.7778 10.5875C81.4809 11.4266 82.1992 12.9849 82.6256 14.0746C83.0521 15.1643 83.8745 15.9423 84.6562 16.6768C85.438 17.4112 85.9914 18.8562 85.9406 20.2336C85.8898 21.6109 84.5014 22.7333 83.5597 22.7769C82.618 22.8205 81.8489 21.733 80.3057 20.4973C80.0823 20.3185 79.8589 20.1507 79.6356 19.9873C80.4402 16.9993 79.8513 14.5693 79.5366 13.8392C79.5366 13.8392 79.2624 13.6038 79.4858 14.7807C79.6889 15.8508 79.3513 18.599 79.0314 19.5601C78.2076 18.9973 77.3419 18.4811 76.4399 18.0149C75.7723 17.6771 73.7189 16.7073 72.4167 15.3997C71.1146 14.092 70.1044 11.6663 70.0206 11.1368C69.8658 11.2109 69.7668 11.3874 69.8506 11.7535C70.2398 12.9467 70.8035 14.0928 71.5283 15.1643C72.3837 16.3259 74.422 18.0738 75.2266 18.5009C76.0312 18.9281 78.0187 20.1616 78.9248 20.9549C79.831 21.7482 80.8082 23.1605 80.9783 23.9102C79.6641 23.5487 78.2749 23.4335 76.9044 23.5724C76.0732 23.7034 75.2902 24.0022 74.6199 24.4441C73.4955 24.2205 72.4382 23.7968 71.5165 23.2002C70.5949 22.6037 69.8293 21.8477 69.2693 20.9811C69.2573 20.419 69.3787 19.8608 69.6262 19.3404C69.8736 18.8199 70.2419 18.3482 70.7085 17.9539C70.4851 17.8362 70.2795 17.9692 70.145 18.0868C70.0105 18.2045 69.0739 19.1765 68.8175 20.2379C67.7768 18.3091 67.5864 16.3259 67.5078 15.574C67.2336 15.5893 67.2006 15.7658 67.2006 15.9271C67.2774 17.4323 67.6197 18.9189 68.2159 20.336C68.9041 21.8638 70.0283 23.2187 71.4852 24.2763C72.1705 24.7318 73.4016 24.8343 72.9929 25.3355C72.5843 25.8368 71.7593 25.3944 69.9292 26.2618C69.2983 26.5678 68.7033 26.9254 68.1525 27.3297L67.7692 26.9112C68.3479 26.338 68.3048 25.451 68.1195 24.8125C69.2718 25.0478 70.0815 24.7928 70.0942 24.4202C70.1069 24.0475 69.3531 23.9102 68.8505 24.0475C69.1932 23.8513 69.7414 23.2346 69.4089 22.9687C69.0764 22.7028 68.6474 22.9687 68.3708 23.2324C68.3936 23.0668 68.4621 22.4391 67.7895 22.4674C67.1169 22.4958 67.2996 23.6923 67.4468 24.2109C66.6854 24.8386 64.9238 25.5186 64.5811 25.5818C64.0737 25.6863 63.6034 25.895 63.2105 26.1898C63.0503 26.3518 62.9496 26.5508 62.9212 26.7618C62.8927 26.9728 62.9377 27.1864 63.0506 27.3754C62.9649 27.5342 62.8928 27.6981 62.8348 27.8658C62.7891 28.0641 62.8983 28.0641 62.9719 28.0118C63.0861 27.9334 63.4059 27.65 63.4059 27.65C63.4359 27.7993 63.4555 27.9499 63.4643 28.1012C63.4643 28.2581 63.6014 28.2298 63.6344 28.16C63.6926 28.0116 63.7728 27.8702 63.873 27.7394C63.9872 27.6217 64.5811 27.4452 65.071 27.4059C65.5076 27.3711 66.7209 27.5106 67.4494 27.1422L67.8606 27.5432C67.2918 27.9711 66.7623 28.436 66.2767 28.9337C66.0381 29.1974 65.9518 29.4916 66.1066 29.5875C67.4815 28.0641 69.3691 26.941 71.5131 26.3707C72.2391 26.2116 72.8 26.1986 73.5057 26.532C73.5869 28.4935 75.2063 29.1037 76.0439 29.0448C76.8815 28.986 77.4983 28.6765 77.7395 28.075C77.8453 27.8067 77.8724 27.5202 77.8184 27.2408C77.7644 26.9614 77.6309 26.6977 77.4298 26.4732L77.4146 26.4906C77.3125 26.4143 77.1903 26.3605 77.0587 26.3336C76.927 26.3067 76.7897 26.3076 76.6585 26.3362C76.5273 26.3649 76.4062 26.4204 76.3055 26.498C76.2047 26.5756 76.1274 26.673 76.0801 26.7819C76.0328 26.8908 76.0169 27.0079 76.0338 27.1232C76.0508 27.2385 76.1 27.3485 76.1772 27.4439C76.2545 27.5393 76.3576 27.6172 76.4776 27.671C76.5976 27.7247 76.731 27.7527 76.8663 27.7525C76.9191 27.7523 76.9718 27.748 77.0237 27.7394C77.0034 28.0925 76.6125 28.2668 76.214 28.2668C75.752 28.2668 75.1987 27.7372 75.1708 26.9287C75.1428 26.1201 76.0262 25.3115 77.2014 25.3115C78.3766 25.3115 79.3767 26.2661 79.8031 27.0747C80.2295 27.8832 80.4529 29.0884 80.1102 29.9711C79.7675 30.8537 78.1913 33.8809 77.1658 36.263C76.1404 38.6451 75.2494 41.8793 74.9068 42.8775C74.6258 43.7455 74.259 44.5913 73.8102 45.4056C73.5361 45.8175 73.5691 46.1989 74.0158 46.4343C74.4626 46.6696 77.8029 47.7027 81.755 46.3471C82.4403 46.1117 82.5165 45.5538 81.9961 45.3772C81.4758 45.2007 80.4199 45.1724 79.5645 44.5251C78.7091 43.8778 78.468 42.762 78.572 41.6156C78.6761 40.4692 79.7015 37.2568 80.7295 34.8246C81.7575 32.3924 83.2678 30.6838 84.4608 30.6489C85.6538 30.614 86.4127 32.3924 86.7884 33.177C87.164 33.9616 88.3291 38.7344 88.4662 41.3497C88.6032 43.965 87.131 44.7605 86.2401 44.9065C85.3492 45.0525 84.2552 44.8171 84.174 43.7994C84.1207 43.1216 84.6994 42.7097 85.1436 43.054C84.8364 43.4746 85.0649 44.0631 85.6512 44.0544C85.7759 44.0511 85.8984 44.0262 86.0115 43.9811C86.1246 43.9361 86.2259 43.8717 86.3092 43.7921C86.3925 43.7124 86.4561 43.619 86.4961 43.5177C86.5362 43.4163 86.5518 43.3089 86.5422 43.2022C86.5353 43.0392 86.4889 42.8793 86.4058 42.7326C86.3227 42.586 86.2049 42.4558 86.0598 42.3506C85.9148 42.2453 85.7457 42.1672 85.5634 42.1213C85.3812 42.0755 85.1897 42.0628 85.0014 42.0842C83.6435 42.2215 82.9454 43.3177 82.9708 44.2309C82.9962 45.1441 83.415 47.0467 86.565 47.0467C88.7911 47.0467 89.1667 46.4103 91.2557 46.2926C93.3447 46.1749 95.7053 47.0292 97.0074 47.0292C97.7689 47.0292 97.9237 46.8636 98.0456 46.6195C98.2994 46.1204 97.7613 45.6758 97.3501 45.3533C96.6134 44.7068 96.0623 43.9218 95.7408 43.0605C95.2966 41.9142 94.5428 38.4075 94.03 36.8798C93.5173 35.352 91.705 31.8258 91.4613 31.294C91.2176 30.7622 90.6998 30.0844 91.6593 29.5287C92.6829 28.9146 93.4907 28.071 93.9945 27.0899C94.3879 26.2182 94.9362 26.2182 95.7408 26.1201C96.3601 26.0416 97.3348 26.1746 99.2005 25.7126C101.259 25.6886 105.962 26.3664 108.661 27.7568C108.669 27.6259 108.635 27.4955 108.562 27.3801C108.49 27.2647 108.381 27.1688 108.249 27.103V27.1379ZM82.2982 3.96436C82.3795 3.96436 82.459 3.94366 82.5266 3.90486C82.5943 3.86607 82.647 3.81092 82.6781 3.74641C82.7092 3.68189 82.7173 3.61091 82.7015 3.54242C82.6856 3.47393 82.6465 3.41102 82.5889 3.36165C82.5314 3.31227 82.4582 3.27865 82.3784 3.26502C82.2987 3.2514 82.216 3.25839 82.1408 3.28511C82.0657 3.31183 82.0015 3.35709 81.9563 3.41515C81.9111 3.47321 81.887 3.54147 81.887 3.6113C81.887 3.65766 81.8976 3.70357 81.9183 3.74641C81.939 3.78924 81.9692 3.82817 82.0074 3.86095C82.0456 3.89374 82.0909 3.91974 82.1408 3.93748C82.1907 3.95523 82.2442 3.96436 82.2982 3.96436ZM73.8077 8.07906C73.889 8.07906 73.9685 8.05835 74.0362 8.01956C74.1038 7.98076 74.1565 7.92562 74.1876 7.86111C74.2187 7.79659 74.2269 7.7256 74.211 7.65712C74.1951 7.58863 74.156 7.52572 74.0985 7.47634C74.041 7.42697 73.9677 7.39334 73.8879 7.37972C73.8082 7.36609 73.7255 7.37309 73.6503 7.39981C73.5752 7.42653 73.511 7.47179 73.4658 7.52985C73.4206 7.58791 73.3965 7.65617 73.3965 7.726C73.3965 7.81964 73.4398 7.90944 73.517 7.97565C73.5941 8.04186 73.6987 8.07906 73.8077 8.07906ZM91.7507 10.1669C91.7507 10.0971 91.7265 10.0288 91.6814 9.97077C91.6362 9.91271 91.572 9.86746 91.4968 9.84074C91.4217 9.81401 91.339 9.80702 91.2592 9.82064C91.1795 9.83427 91.1062 9.86789 91.0487 9.91727C90.9912 9.96665 90.952 10.0296 90.9362 10.098C90.9203 10.1665 90.9285 10.2375 90.9596 10.302C90.9907 10.3665 91.0434 10.4217 91.111 10.4605C91.1786 10.4993 91.2581 10.52 91.3395 10.52C91.4485 10.52 91.5531 10.4828 91.6302 10.4166C91.7074 10.3504 91.7507 10.2606 91.7507 10.1669ZM88.7707 21.6327C88.7707 21.7026 88.7949 21.7708 88.8401 21.8289C88.8852 21.8869 88.9495 21.9322 89.0246 21.9589C89.0997 21.9856 89.1824 21.9926 89.2622 21.979C89.3419 21.9654 89.4152 21.9318 89.4727 21.8824C89.5302 21.833 89.5694 21.7701 89.5853 21.7016C89.6011 21.6331 89.593 21.5621 89.5618 21.4976C89.5307 21.4331 89.478 21.378 89.4104 21.3392C89.3428 21.3004 89.2633 21.2797 89.1819 21.2797C89.0729 21.2797 88.9683 21.3169 88.8912 21.3831C88.8141 21.4493 88.7707 21.5391 88.7707 21.6327ZM103.871 18.6339C103.871 18.564 103.847 18.4958 103.802 18.4377C103.756 18.3797 103.692 18.3344 103.617 18.3077C103.542 18.281 103.459 18.274 103.379 18.2876C103.3 18.3012 103.226 18.3348 103.169 18.3842C103.111 18.4336 103.072 18.4965 103.056 18.565C103.04 18.6335 103.049 18.7045 103.08 18.769C103.111 18.8335 103.164 18.8886 103.231 18.9274C103.299 18.9662 103.378 18.9869 103.46 18.9869C103.569 18.9869 103.673 18.9497 103.75 18.8835C103.828 18.8173 103.871 18.7275 103.871 18.6339ZM110.546 21.3973C110.628 21.3973 110.707 21.3766 110.775 21.3378C110.843 21.2991 110.895 21.2439 110.926 21.1794C110.958 21.1149 110.966 21.0439 110.95 20.9754C110.934 20.9069 110.895 20.844 110.837 20.7946C110.78 20.7453 110.706 20.7116 110.627 20.698C110.547 20.6844 110.464 20.6914 110.389 20.7181C110.314 20.7448 110.25 20.7901 110.205 20.8481C110.159 20.9062 110.135 20.9745 110.135 21.0443C110.135 21.1379 110.179 21.2277 110.256 21.2939C110.333 21.3602 110.437 21.3973 110.546 21.3973ZM63.3628 20.397C63.2814 20.397 63.2019 20.4177 63.1343 20.4565C63.0667 20.4953 63.014 20.5504 62.9829 20.615C62.9517 20.6795 62.9436 20.7505 62.9595 20.8189C62.9753 20.8874 63.0145 20.9503 63.072 20.9997C63.1295 21.0491 63.2028 21.0827 63.2826 21.0963C63.3623 21.11 63.445 21.103 63.5201 21.0763C63.5953 21.0495 63.6595 21.0043 63.7047 20.9462C63.7499 20.8882 63.774 20.8199 63.774 20.7501C63.774 20.6564 63.7306 20.5666 63.6535 20.5004C63.5764 20.4342 63.4718 20.397 63.3628 20.397ZM75.0718 23.0123C75.0718 23.0821 75.0959 23.1504 75.1411 23.2084C75.1862 23.2665 75.2505 23.3117 75.3256 23.3385C75.4007 23.3652 75.4834 23.3722 75.5632 23.3586C75.6429 23.3449 75.7162 23.3113 75.7737 23.2619C75.8312 23.2126 75.8704 23.1496 75.8863 23.0812C75.9021 23.0127 75.894 22.9417 75.8629 22.8772C75.8317 22.8127 75.779 22.7575 75.7114 22.7187C75.6438 22.6799 75.5643 22.6592 75.483 22.6592C75.3739 22.6592 75.2693 22.6964 75.1922 22.7626C75.1151 22.8288 75.0718 22.9186 75.0718 23.0123ZM70.8938 15.3975C70.8125 15.3975 70.733 15.4182 70.6653 15.457C70.5977 15.4958 70.545 15.5509 70.5139 15.6154C70.4828 15.6799 70.4746 15.7509 70.4905 15.8194C70.5064 15.8879 70.5455 15.9508 70.603 16.0002C70.6605 16.0496 70.7338 16.0832 70.8136 16.0968C70.8933 16.1104 70.976 16.1034 71.0511 16.0767C71.1263 16.05 71.1905 16.0047 71.2357 15.9467C71.2809 15.8886 71.305 15.8204 71.305 15.7505C71.305 15.6569 71.2617 15.5671 71.1845 15.5009C71.1074 15.4347 71.0028 15.3975 70.8938 15.3975ZM78.402 18.3397C78.4833 18.3397 78.5628 18.319 78.6304 18.2802C78.698 18.2414 78.7507 18.1862 78.7819 18.1217C78.813 18.0572 78.8211 17.9862 78.8053 17.9177C78.7894 17.8492 78.7502 17.7863 78.6927 17.7369C78.6352 17.6876 78.5619 17.6539 78.4822 17.6403C78.4024 17.6267 78.3197 17.6337 78.2446 17.6604C78.1695 17.6871 78.1052 17.7324 78.0601 17.7904C78.0149 17.8485 77.9908 17.9168 77.9908 17.9866C77.9908 18.0802 78.0341 18.17 78.1112 18.2362C78.1883 18.3025 78.2929 18.3397 78.402 18.3397ZM71.3075 25.0631C71.3075 24.9933 71.2834 24.925 71.2382 24.8669C71.193 24.8089 71.1288 24.7636 71.0537 24.7369C70.9785 24.7102 70.8959 24.7032 70.8161 24.7168C70.7363 24.7304 70.6631 24.7641 70.6056 24.8134C70.5481 24.8628 70.5089 24.9257 70.493 24.9942C70.4772 25.0627 70.4853 25.1337 70.5164 25.1982C70.5475 25.2627 70.6003 25.3179 70.6679 25.3567C70.7355 25.3955 70.815 25.4162 70.8963 25.4162C71.0054 25.4162 71.11 25.379 71.1871 25.3127C71.2642 25.2465 71.3075 25.1567 71.3075 25.0631ZM65.6244 28.4738C65.6244 28.404 65.6002 28.3358 65.5551 28.2777C65.5099 28.2196 65.4457 28.1744 65.3705 28.1477C65.2954 28.1209 65.2127 28.1139 65.1329 28.1276C65.0532 28.1412 64.9799 28.1748 64.9224 28.2242C64.8649 28.2736 64.8257 28.3365 64.8099 28.405C64.794 28.4735 64.8021 28.5444 64.8333 28.609C64.8644 28.6735 64.9171 28.7286 64.9847 28.7674C65.0523 28.8062 65.1318 28.8269 65.2132 28.8269C65.3222 28.8269 65.4268 28.7897 65.5039 28.7235C65.581 28.6573 65.6244 28.5675 65.6244 28.4738ZM107.021 23.1234C107.021 23.0536 106.997 22.9853 106.952 22.9273C106.906 22.8692 106.842 22.824 106.767 22.7972C106.692 22.7705 106.609 22.7635 106.529 22.7772C106.45 22.7908 106.376 22.8244 106.319 22.8738C106.261 22.9232 106.222 22.9861 106.206 23.0546C106.19 23.123 106.199 23.194 106.23 23.2585C106.261 23.3231 106.314 23.3782 106.381 23.417C106.449 23.4558 106.528 23.4765 106.61 23.4765C106.719 23.4765 106.823 23.4393 106.9 23.3731C106.978 23.3069 107.021 23.2171 107.021 23.1234ZM60.4742 59.1205C60.0534 59.4351 59.5089 59.6003 58.9513 59.5826C57.4943 59.5826 56.4917 58.7457 56.4917 57.4707C56.4917 56.296 57.3572 55.3589 58.931 55.3589C59.4569 55.3418 59.9722 55.4897 60.3803 55.7751L60.0047 56.3069C59.6891 56.1193 59.3121 56.0231 58.9284 56.0323C58.0426 56.0323 57.375 56.5815 57.375 57.4707C57.362 57.6605 57.3956 57.8505 57.4734 58.0284C57.5512 58.2064 57.6716 58.3683 57.8268 58.5039C57.982 58.6394 58.1686 58.7455 58.3746 58.8153C58.5805 58.8851 58.8012 58.9171 59.0224 58.9091C59.4305 58.9098 59.8275 58.7949 60.1519 58.5822L60.4742 59.1205ZM62.119 55.4373C62.3728 55.4264 63.0176 55.409 63.4948 55.409C64.6319 55.409 65.0609 55.8449 65.0609 56.4202C65.0718 56.6165 65.0125 56.8109 64.8909 56.9772C64.7693 57.1436 64.5912 57.274 64.3806 57.3509V57.3617C64.6301 57.4078 64.8519 57.5294 65.0057 57.7042C65.1595 57.879 65.2349 58.0955 65.2182 58.3141C65.2182 59.1554 64.4568 59.5411 63.4415 59.5411C63.0049 59.5411 62.3932 59.5302 62.114 59.5128L62.119 55.4373ZM62.9567 56.0912V57.1264H63.5227C63.911 57.1264 64.2309 56.9564 64.2309 56.5815C64.2309 56.2481 63.9313 56.0737 63.4694 56.0737C63.2892 56.0803 63.1064 56.0868 62.9567 56.0977V56.0912ZM62.9567 57.7519V58.8416C63.1394 58.8604 63.3234 58.8698 63.5075 58.8699C64.0735 58.8699 64.3781 58.665 64.3781 58.2793C64.3781 57.9349 64.0709 57.7584 63.5481 57.7584L62.9567 57.7519ZM67.1346 55.4199H69.8937V56.0933H67.9722V57.1111H69.6881V57.7845H67.9722V58.8437H69.9597V59.5172H67.1346V55.4199ZM71.272 55.4199H75.2012V56.0933H73.6554V59.515H72.8178V56.0977H71.272V55.4199ZM79.2167 56.0933H77.8283L77.7319 56.8648C77.4526 59.2447 76.8333 59.6305 75.8942 59.5128L75.9145 58.8001C76.2825 58.8416 76.7648 58.7064 76.9755 56.2394L77.044 55.4199H80.0467V59.5193H79.2167V56.0933ZM83.0241 56.8234C83.2001 56.8043 83.3773 56.7948 83.5546 56.7951C84.7324 56.7951 85.2984 57.316 85.2984 58.1158C85.2984 58.9876 84.5902 59.5259 83.3719 59.5259C82.9226 59.5259 82.4657 59.515 82.1865 59.515V55.4264H83.0241V56.8234ZM83.0241 57.4969V58.8437C83.1739 58.8437 83.311 58.8612 83.4734 58.8612C84.0851 58.8612 84.4126 58.6214 84.4126 58.142C84.4126 57.7061 84.0724 57.4751 83.4861 57.4751C83.3308 57.4769 83.1758 57.4856 83.0216 57.5012L83.0241 57.4969ZM85.9177 55.4221H86.7478V59.5193H85.9152L85.9177 55.4221ZM88.8824 59.515V55.4264H89.7201V58.3381L92.2202 55.4264H92.9563V59.5193H92.1086V56.612L89.6084 59.5172L88.8824 59.515ZM90.4206 54.4283C90.4765 54.6462 90.6592 54.7683 90.9993 54.7683C91.3395 54.7683 91.507 54.6811 91.5451 54.4283H92.3269C92.3065 54.9317 91.7481 55.2652 90.9993 55.2652C90.182 55.2652 89.6845 54.9252 89.6388 54.4283H90.4206ZM97.3475 55.4221H98.2004L99.8274 57.3334L101.381 55.4221H102.17V59.5193H101.34V56.5597L99.835 58.3773H99.7132L98.1902 56.5772V59.5193H97.3526L97.3475 55.4221ZM104.292 59.5193V55.4264H105.13V58.3381L107.63 55.4264H108.366V59.5193H107.528V56.612L105.028 59.5172L104.292 59.5193ZM110.501 59.5193V55.4264C110.755 55.4264 111.516 55.4156 111.856 55.4156C113.26 55.4156 113.702 56.0694 113.702 56.7232C113.702 57.377 113.095 58.0504 111.958 58.0504C111.816 58.0504 111.541 58.0504 111.338 58.033V59.5128L110.501 59.5193ZM111.338 56.0977V57.3552C111.535 57.3732 111.732 57.3826 111.93 57.3835C112.437 57.3835 112.816 57.1787 112.816 56.7297C112.816 56.2808 112.509 56.0933 111.937 56.0933C111.772 56.0868 111.567 56.0912 111.344 56.0977H111.338Z" fill="#A4D55D"/>
</g>
<defs>
<clipPath id="clip0">
<rect width="170" height="108" fill="white"/>
</clipPath>
</defs>
</svg>
