<svg width="65" height="44" viewBox="0 0 65 44" fill="none" xmlns="http://www.w3.org/2000/svg">
<g clip-path="url(#clip0)">
<path d="M22.9449 37.742H32.6223L28.7989 26.843H30.6748L21.6788 0.399902L12.6824 26.843H14.5583L10.7349 37.742H20.4126V41.0958H14.2509V43.628H29.1063V41.0958H22.9449V37.742ZM14.3066 35.2101L18.1301 24.3107H16.2185L21.6788 8.26178L27.139 24.3107H25.2275L29.0509 35.2101H22.9449V23.1175H20.4126V35.2101H14.3066Z" fill="white"/>
</g>
<g clip-path="url(#clip1)">
<path d="M44.2097 35.7368C45.0072 35.0172 46.7179 33.3728 48.4384 31.0727C51.5366 26.9313 53.1741 22.6201 53.1741 18.6048C53.1741 14.5897 51.5366 10.2785 48.4384 6.13685C46.1328 3.05516 43.8443 1.14955 43.748 1.07006L42.9376 0.399902L42.1273 1.07006C42.031 1.14955 39.7425 3.05516 37.4368 6.13685C34.3387 10.2785 32.7012 14.5897 32.7012 18.6048C32.7012 22.6201 34.3387 26.9313 37.4368 31.0727C39.1578 33.3728 40.8684 35.0172 41.6659 35.7368V41.0842H35.4765V43.628H50.3991V41.0842H44.2097V35.7368ZM35.245 18.6048C35.245 11.7544 40.8144 5.79056 42.939 3.76523C45.0649 5.78726 50.6307 11.7369 50.6307 18.6048C50.6307 24.3401 46.7271 29.453 44.2097 32.1548V23.0245H41.6659V32.1601C39.1482 29.4639 35.245 24.3569 35.245 18.6048Z" fill="white"/>
</g>
<defs>
<clipPath id="clip0">
<rect width="43.2281" height="43.2281" fill="white" transform="translate(0.0966797 0.399902)"/>
</clipPath>
<clipPath id="clip1">
<rect width="43.2281" height="43.2281" fill="white" transform="translate(21.3032 0.399902)"/>
</clipPath>
</defs>
</svg>
